<svg xmlns="http://www.w3.org/2000/svg" width="31.441" height="40.007" viewBox="0 0 31.441 40.007"><defs><style>.a{fill:#fff;}</style></defs><g transform="translate(-0.78 -0.282)"><g transform="translate(0.78 0.282)"><path class="a" d="M28.736,40.007H2.689A2.679,2.679,0,0,1,0,37.345V2.662A2.679,2.679,0,0,1,2.689,0H28.736a2.687,2.687,0,0,1,2.7,2.662V37.345A2.687,2.687,0,0,1,28.736,40.007ZM2.689,1.78a.867.867,0,0,0-.891.882V37.345a.867.867,0,0,0,.891.882H28.736a.875.875,0,0,0,.907-.882V2.662a.875.875,0,0,0-.907-.882ZM12.57,35.565H4.487a.93.93,0,0,1-.891-.9V28.445a.947.947,0,0,1,.891-.882H12.57a.93.93,0,0,1,.906.882v6.222A.938.938,0,0,1,12.57,35.565ZM5.394,29.344v4.441h6.286V29.344Zm21.544,3.1H16.166a.89.89,0,1,1,0-1.78H26.938a.9.9,0,0,1,.907.9A.885.885,0,0,1,26.938,32.447Zm-14.368-8H4.487a.934.934,0,0,1-.891-.882V17.341a.969.969,0,0,1,.891-.9H12.57a.937.937,0,0,1,.906.9v6.222A.93.93,0,0,1,12.57,24.445ZM5.394,18.223v4.442h6.286V18.223Zm21.544,2.662H16.166a.882.882,0,1,1,0-1.764H26.938a.882.882,0,1,1,0,1.764ZM12.57,13.773H4.487a.922.922,0,0,1-.891-.882v-8a.97.97,0,0,1,.891-.882h5.42a.916.916,0,0,1,.881.882.916.916,0,0,1-.881.882H5.394v6.237h6.286a.879.879,0,0,1,.257-.631.894.894,0,0,1,.634-.283.946.946,0,0,1,.906.913v.882A.918.918,0,0,1,12.57,13.773Zm-2.257-3.113a.885.885,0,0,1-.5-.147L7.128,8.733a.856.856,0,0,1-.367-.555.9.9,0,0,1,.128-.689.938.938,0,0,1,.768-.379.872.872,0,0,1,.489.142l1.941,1.292,3.533-5.056a.949.949,0,0,1,.668-.393c.026,0,.052,0,.079,0a.943.943,0,0,1,.8.445.876.876,0,0,1-.048.96l-4.041,5.781A.928.928,0,0,1,10.313,10.659ZM26.938,9.34H16.166a.89.89,0,1,1,0-1.78H26.938a.885.885,0,0,1,.907.882A.9.9,0,0,1,26.938,9.34Z"/></g></g></svg>