<svg xmlns="http://www.w3.org/2000/svg" width="37.478" height="33.869" viewBox="0 0 37.478 33.869"><defs><style>.a{fill:#fff;}</style></defs><g transform="translate(-564.389 -266.692)"><g transform="translate(564.389 266.692)"><path class="a" d="M583.1,300.558c-4.338,0-8.676.011-13.015-.011a9.115,9.115,0,0,1-2.13-.245,4.405,4.405,0,0,1-3.316-5.894,9.031,9.031,0,0,1,.8-1.815q6.513-11.322,13.054-22.629a7.1,7.1,0,0,1,2.276-2.553,4.268,4.268,0,0,1,4.886.1,7.3,7.3,0,0,1,2.114,2.436q3.065,5.314,6.132,10.628,3.453,5.982,6.908,11.962a6.949,6.949,0,0,1,1.042,3,4.283,4.283,0,0,1-3.212,4.666,8.029,8.029,0,0,1-2.2.332c-4.446.03-8.893.015-13.34.015Zm.043-1.988c4.3,0,8.6.014,12.893-.014a7.479,7.479,0,0,0,2.156-.31,2.244,2.244,0,0,0,1.618-2.792,6.1,6.1,0,0,0-.663-1.773q-6.576-11.45-13.2-22.871a6.271,6.271,0,0,0-1.172-1.441,2.26,2.26,0,0,0-3.23-.034,6.537,6.537,0,0,0-1.269,1.567q-6.589,11.349-13.129,22.727a6.56,6.56,0,0,0-.641,1.528,2.39,2.39,0,0,0,1.818,3.18,6.971,6.971,0,0,0,1.766.223C574.443,298.579,578.8,298.57,583.147,298.571Z" transform="translate(-564.389 -266.692)"/><path class="a" d="M784.162,396.743c0,1.627.005,3.254,0,4.881a.993.993,0,1,1-1.979-.037q-.005-2.868,0-5.735c0-1.329,0-2.658,0-3.986a.948.948,0,0,1,.726-.959.929.929,0,0,1,1.087.423,1.564,1.564,0,0,1,.159.7C784.169,393.6,784.162,395.17,784.162,396.743Z" transform="translate(-764.423 -380.744)"/><path class="a" d="M774.542,562.845a1.929,1.929,0,1,1-1.908-1.918A1.924,1.924,0,0,1,774.542,562.845Z" transform="translate(-753.867 -536.94)"/></g></g></svg>