<svg xmlns="http://www.w3.org/2000/svg" width="126.403" height="68.619" viewBox="0 0 126.403 68.619"><defs><style>.a{fill:#fff;stroke:#f45a59;stroke-width:0.1px;}</style></defs><g transform="translate(0.05 0.05)"><g transform="translate(0)"><path class="a" d="M106.534,0c6.028,7.309,11.979,14.688,18.14,21.892,1.722,2.016,2.366,3.669.952,6.084a62.845,62.845,0,0,0-2.856,6.434c-5.2-5.986-10.151-11.685-15.388-17.706C100.366,34,93.512,50.925,86.4,68.477a52.768,52.768,0,0,1-3.6-4.012c-1.281-1.771-2.513-1.61-4.068-.4-5.65,4.4-5.678,4.39-10.936.042-1.82-1.505-3.5-1.414-5.293.063-5.258,4.341-5.86,4.355-10.677.1-2.058-1.82-3.865-1.547-5.8.21-4.4,3.984-5.783,3.977-10.165-.049-1.974-1.813-3.795-1.862-5.825-.14-4.964,4.208-5.72,4.222-10.4.056-2.163-1.925-4.061-1.624-6.091.238-4.2,3.865-5.531,3.746-9.878-.07C2.744,63.7,1.239,63.534,0,63.072V61.686c1.631.644,3.6.91,4.838,2,3.262,2.863,4.278,3.052,7.281.224,3.43-3.227,5.832-3.213,9.227.056,2.723,2.625,4.026,2.646,6.756.105,3.7-3.444,5.86-3.451,9.458-.014,2.667,2.548,4,2.541,6.784-.049,3.669-3.409,5.79-3.437,9.416.154,2.282,2.254,4.3,2.212,6.595.049,3.928-3.7,5.832-3.7,9.64.014,2.149,2.093,3.844,1.7,6.385.245,5.146-2.947,6.847-7.813,8.835-12.784C90.551,38.33,96.082,25.05,101.521,11.741c.427-1.043.749-2.128,1.379-3.942H29.894c-.007-.406-.021-.805-.028-1.211,1.288-.084,2.576-.231,3.865-.231,22.158-.014,44.316-.1,66.474.077,3.6.028,4.621-1.526,4.964-4.943h-4.222c-22.97,0-45.941.021-68.911-.063C30.86,1.435,29.705.5,28.55,0Z" transform="translate(0)"/><path class="a" d="M102.647,13.58Q92.3,38.71,81.959,63.833c-.483-.112-.966-.231-1.449-.343a8.4,8.4,0,0,1,.028-2.261C83.24,51.819,99.868,14.189,102.647,13.58Z" transform="translate(-24.124 -4.073)"/><path class="a" d="M35.652,15.339,15.006,65.305c-.427-.084-.854-.175-1.274-.259a7.643,7.643,0,0,1,.042-2.716Q23.162,39.479,32.7,16.683A11.518,11.518,0,0,1,34.28,14.52C34.742,14.793,35.2,15.066,35.652,15.339Z" transform="translate(-4.084 -4.355)"/><path class="a" d="M123.889,14.659c.21.553.756,1.239.588,1.645q-10.06,24.615-20.233,49.189l-1.33-.273c-.056-.756-.385-1.624-.126-2.247q9.714-23.628,19.547-47.208c.217-.532.462-1.05.693-1.575C123.315,14.337,123.6,14.5,123.889,14.659Z" transform="translate(-30.797 -4.256)"/><path class="a" d="M56.956,14.02c1.12,2.555-17.818,48.846-20.422,50.484C35.974,62.334,53.9,17.787,56.956,14.02Z" transform="translate(-10.953 -4.205)"/><path class="a" d="M79.291,14.015c.175.581.672,1.3.49,1.729q-10.1,24.542-20.317,49.028c-.567-.2-1.127-.413-1.694-.616,1.393-5.664,4.215-10.88,6.336-16.305,2.261-5.783,4.719-11.489,7.113-17.215q3.486-8.37,7.015-16.725Z" transform="translate(-17.325 -4.172)"/><path class="a" d="M28.09,65.91q5.891-14.734,11.783-29.46c.217.084.441.168.658.259Q34.66,51.453,28.8,66.19C28.559,66.092,28.328,66,28.09,65.91Z" transform="translate(-8.424 -10.931)"/><path class="a" d="M83.836,40.636,73.313,67.121c-.252-.1-.5-.2-.763-.294q5.314-13.295,10.621-26.6C83.395,40.363,83.619,40.5,83.836,40.636Z" transform="translate(-21.758 -12.065)"/><path class="a" d="M56.782,56.41,51.216,72.162c-.371-.147-.735-.287-1.106-.434q3.371-7.635,6.742-15.262Z" transform="translate(-15.028 -16.917)"/><path class="a" d="M59.71,49.817Q62.451,42.025,65.2,34.24l1.029.4Q62.93,42.2,59.64,49.761Z" transform="translate(-17.886 -10.269)"/><path class="a" d="M110.752,34.675q-2.919,7.309-5.839,14.611c-.21-.084-.413-.161-.623-.245q2.919-7.309,5.839-14.611C110.332,34.514,110.542,34.6,110.752,34.675Z" transform="translate(-31.277 -10.326)"/></g></g></svg>