<svg xmlns="http://www.w3.org/2000/svg" width="24.238" height="26.663" viewBox="0 0 24.238 26.663"><defs><style>.a{fill:#529458;}</style></defs><path class="a" d="M273.419,749.015v-8.455a8.322,8.322,0,0,1-1.752-.03,1.741,1.741,0,0,1-1.136-.73,1.434,1.434,0,0,1,.4-1.2c.927-.956,1.974-1.8,2.9-2.748a2.1,2.1,0,0,0,.556-1.265c.066-1.564.047-3.134.016-4.7-.013-.653.23-.9.877-.871.8.036,1.6,0,2.4.01,1.984.027,1.549-.192,1.842,1.619.829-.764,1.624-1.456,2.368-2.2.493-.492.866-.558,1.419-.042,3.612,3.361,7.263,6.68,10.865,10.053a1.837,1.837,0,0,1,.549,1.342c-.09.737-.8.77-1.423.762-.461-.007-.922,0-1.457,0v8.453c.663,0,1.289-.038,1.908.019.234.022.448.261.671.4-.228.139-.454.4-.684.4-2.2.032-4.4.023-6.6.023l-15.106,0a1.434,1.434,0,0,1-.5-.011,5.219,5.219,0,0,1-.691-.393c.217-.145.423-.392.652-.415C272.091,748.975,272.692,749.015,273.419,749.015Zm20.439-9.326.093-.3-11.32-10.412c-1.084,1-2.082,1.933-3.1,2.842a2.485,2.485,0,0,1-.684.305,2.68,2.68,0,0,1-.264-.7c-.042-.484-.012-.973-.012-1.481h-3.312c0,1.624-.038,3.186.016,4.745a2.036,2.036,0,0,1-.786,1.8c-1.1.932-2.134,1.95-3.2,2.933l.1.262a16.288,16.288,0,0,0,1.747-.012c.913-.1,1.251.224,1.216,1.168-.064,1.733-.018,3.47-.018,5.206v2.9h8.979v-1.171c0-1.769.021-3.538-.009-5.306-.012-.728.243-1.041.992-.994.7.044,1.4.007,2.1.01,2.239.01,1.846-.151,1.868,1.857.02,1.856,0,3.711,0,5.577h2.615c0-2.785.019-5.486-.012-8.187-.009-.768.23-1.116,1.032-1.058C292.551,739.725,293.206,739.688,293.858,739.688Zm-9.584,2.737v6.5h3.112v-6.5Z" transform="translate(-270.496 -728.049)"/><path class="a" d="M336.329,845.894c-.7,0-1.393.03-2.085-.021-.193-.014-.368-.271-.552-.416.183-.138.364-.391.55-.4q2.036-.052,4.073,0c.207,0,.408.231.612.355-.2.16-.4.438-.612.458C337.657,845.934,336.992,845.9,336.329,845.894Z" transform="translate(-320.981 -821.505)"/><path class="a" d="M339.528,857.154a11.4,11.4,0,0,1-1.293-.016c-.181-.021-.341-.214-.511-.329.165-.166.321-.464.495-.474a22.946,22.946,0,0,1,2.588,0c.184.01.352.292.528.449-.17.123-.33.329-.513.351a10.562,10.562,0,0,1-1.293.017Z" transform="translate(-324.202 -830.501)"/><path class="a" d="M300.019,788.017c.039-2.295-.374-2.073,2.051-2.072,2.528,0,2.145-.248,2.146,2.182,0,2.272.353,1.972-2,2h-.1C300.019,790.125,300.019,790.125,300.019,788.017Zm3.283,1.238v-2.343h-2.358v2.343Z" transform="translate(-294.077 -774.294)"/></svg>