<svg xmlns="http://www.w3.org/2000/svg" width="25.081" height="31.778" viewBox="0 0 25.081 31.778"><defs><style>.a{fill:#f45a59;stroke:#fff;stroke-width:0.5px;}</style></defs><g transform="translate(-0.53 -0.032)"><g transform="translate(0.78 0.282)"><path class="a" d="M22.466,31.278H2.1A2.094,2.094,0,0,1,0,29.2V2.081A2.094,2.094,0,0,1,2.1,0H22.466a2.1,2.1,0,0,1,2.114,2.081V29.2A2.1,2.1,0,0,1,22.466,31.278ZM2.1,1.392a.678.678,0,0,0-.7.69V29.2a.678.678,0,0,0,.7.69H22.466a.684.684,0,0,0,.709-.69V2.081a.684.684,0,0,0-.709-.69ZM9.828,27.805H3.508a.727.727,0,0,1-.7-.7V22.239a.741.741,0,0,1,.7-.69H9.828a.727.727,0,0,1,.709.69V27.1A.733.733,0,0,1,9.828,27.805ZM4.217,22.941v3.472H9.131V22.941ZM21.06,25.367H12.639a.7.7,0,1,1,0-1.392H21.06a.707.707,0,0,1,.709.7A.692.692,0,0,1,21.06,25.367ZM9.828,19.111H3.508a.73.73,0,0,1-.7-.69V13.558a.758.758,0,0,1,.7-.7H9.828a.733.733,0,0,1,.709.7v4.864A.727.727,0,0,1,9.828,19.111ZM4.217,14.247V17.72H9.131V14.247ZM21.06,16.328H12.639a.69.69,0,1,1,0-1.379H21.06a.69.69,0,1,1,0,1.379ZM9.828,10.768H3.508a.72.72,0,0,1-.7-.69V3.823a.759.759,0,0,1,.7-.69H7.746a.716.716,0,0,1,.689.69.717.717,0,0,1-.689.69H4.217V9.389H9.131a.687.687,0,0,1,.2-.493.7.7,0,0,1,.5-.221.739.739,0,0,1,.709.714v.69A.718.718,0,0,1,9.828,10.768ZM8.063,8.334a.692.692,0,0,1-.388-.115l-2.1-1.392a.669.669,0,0,1-.287-.434.7.7,0,0,1,.1-.539.733.733,0,0,1,.6-.3.682.682,0,0,1,.382.111L7.887,6.68l2.762-3.953a.742.742,0,0,1,.522-.307l.062,0a.737.737,0,0,1,.622.348.685.685,0,0,1-.037.751L8.658,8.034A.726.726,0,0,1,8.063,8.334Zm13-1.031H12.639a.7.7,0,1,1,0-1.392H21.06a.692.692,0,0,1,.709.69A.707.707,0,0,1,21.06,7.3Z" transform="translate(0 0)"/></g></g></svg>