<svg xmlns="http://www.w3.org/2000/svg" width="35.829" height="31.574" viewBox="0 0 35.829 31.574"><defs><style>.a{fill:#f45a59;}</style></defs><g transform="translate(-377.002 -2635.225)"><g transform="translate(377.002 2635.225)"><path class="a" d="M399.046,2651.533c.4,1.1.815,2.192,1.195,3.3a6.132,6.132,0,0,1,.172,1.008,3.076,3.076,0,0,1-1.017.1,9.56,9.56,0,0,1-6.193-4.241c-.1-.168-.319-.375-.487-.378-1.349-.031-2.7-.017-4.14-.017,0,.975.006,1.846,0,2.716-.011,1.427-.641,2.056-2.089,2.063-2.094.01-4.188.017-6.282-.008a.865.865,0,0,0-.945.608,5.925,5.925,0,0,1-4.323,3.467,1.293,1.293,0,0,1-1.019-.114c-.169-.163-.076-.663-.007-.995.193-.93.433-1.849.7-2.956-1.06,0-1.923,0-2.786,0-1.672,0-2.313-.638-2.313-2.293q0-6.112,0-12.224c0-1.527.627-2.151,2.168-2.162.843-.006,1.686,0,2.613,0v-1.009c0-2.575-.007-5.15,0-7.725a1.831,1.831,0,0,1,2.049-2.042q13.455-.011,26.909,0a1.863,1.863,0,0,1,2.08,2.109q.01,9.253,0,18.505a1.825,1.825,0,0,1-2.039,2.048c-1.322.017-2.645,0-3.967,0ZM389.81,2634.4c-.7,1.735-1.337,3.3-1.944,4.876-.059.151.065.384.13.57a5.857,5.857,0,0,1,.555,1.606c.059,2.573.027,5.147.027,7.721,0,.3,0,.6,0,.979,1.5,0,2.88.031,4.259-.014a1.22,1.22,0,0,1,1.31.769,7.4,7.4,0,0,0,4.4,3.546c-.148-1.15-.33-2.25-.417-3.357-.054-.679.307-.992,1.049-.96,1.27.056,2.545.019,3.818.014,1.042,0,1.153-.119,1.154-1.186q0-8.91,0-17.82c0-1.32-.021-1.341-1.324-1.341H376.77c-.2,0-.443-.072-.584.018-.272.173-.689.436-.693.667-.047,2.936-.031,5.872-.031,8.913h.978c3.083,0,6.166-.019,9.249.016a1.035,1.035,0,0,0,1.17-.778c.735-1.951,1.526-3.882,2.33-5.806a1.05,1.05,0,0,1,.624-.568c.156-.034.492.266.581.483q2.359,5.8,4.65,11.627c.09.229-.13.579-.2.872-.292-.146-.811-.254-.841-.442-.293-1.837-1.49-2.127-3.041-1.895a.558.558,0,0,1-.334-.007c-.266-.169-.511-.371-.764-.561.263-.182.511-.489.792-.522a18.886,18.886,0,0,1,2.123-.025Zm-14.488,24.424a4.591,4.591,0,0,0,3.056-3.093.99.99,0,0,1,1.142-.826c2.319.037,4.64,0,6.959.021.685.006.983-.286.983-.959q-.008-6.238,0-12.476c0-.672-.307-.968-.985-.966q-7.426.014-14.853,0c-.62,0-.934.24-.933.906q.019,6.281,0,12.561c0,.644.254.94.9.928.877-.016,1.754,0,2.631,0,1.156,0,1.4.2,1.379,1.369C375.591,2657.1,375.431,2657.9,375.322,2658.822Z" transform="translate(-369.508 -2628.621)"/><path class="a" d="M506.9,2735.108c0,.169.058.372-.014.5a4.448,4.448,0,0,1-.518.64c-.216-.209-.519-.383-.623-.637a1.33,1.33,0,0,1-.006-.912,2.911,2.911,0,0,1,.622-.73,7.466,7.466,0,0,1,.53.72C506.955,2734.8,506.9,2734.966,506.9,2735.108Z" transform="translate(-482.444 -2716.003)"/><path class="a" d="M558.565,2735.245a1.683,1.683,0,0,1,.019-.667.786.786,0,0,1,.512-.433.7.7,0,0,1,.561.369,4.177,4.177,0,0,1,.016,1.423.74.74,0,0,1-.6.42c-.186-.013-.4-.31-.509-.527-.08-.156-.016-.387-.016-.585Z" transform="translate(-526.291 -2716.147)"/><path class="a" d="M523.634,2735.281c0-.2-.064-.427.016-.583.109-.213.324-.509.5-.514a.763.763,0,0,1,.577.44,1.939,1.939,0,0,1,.028,1.079c-.085.278-.4.485-.611.724a7.585,7.585,0,0,1-.5-.729c-.059-.109-.01-.276-.01-.417Z" transform="translate(-497.329 -2716.18)"/><path class="a" d="M542.1,2735.1a1.734,1.734,0,0,1-.018.666c-.088.193-.317.432-.5.441a.685.685,0,0,1-.548-.372,2.35,2.35,0,0,1-.053-1.161c.073-.275.4-.482.616-.719a7.531,7.531,0,0,1,.505.728c.059.108.01.276.01.417Z" transform="translate(-511.698 -2715.995)"/><path class="a" d="M489.666,2735.087c0,.167.062.375-.014.495a5.066,5.066,0,0,1-.582.658c-.173-.211-.423-.4-.5-.64a1.525,1.525,0,0,1,0-.909,2.946,2.946,0,0,1,.564-.735,7.466,7.466,0,0,1,.522.717C489.717,2734.778,489.666,2734.947,489.666,2735.087Z" transform="translate(-468.208 -2715.991)"/><path class="a" d="M409.505,2722.364c-.721,0-1.366.017-2.011,0a2.945,2.945,0,0,1-3.029-2.981c-.04-1.213-.044-2.429,0-3.64a2.9,2.9,0,0,1,2.943-2.871c.339-.009.677,0,1.016,0a2.905,2.905,0,0,1,3.151,3.159c.006,1.016-.025,2.033.009,3.048a3.505,3.505,0,0,1-.768,2.354,1.214,1.214,0,0,0-.023.875c.1.424.465.893-.143,1.16-.675.3-.771-.319-.964-.74C409.62,2722.575,409.54,2722.432,409.505,2722.364Zm.788-2.181a13.491,13.491,0,0,0-.084-5.108c-.1-.4-.709-.8-1.168-.959a4.117,4.117,0,0,0-1.672-.1,1.81,1.81,0,0,0-1.745,1.919c-.017.933.071,1.873-.02,2.8-.169,1.715.818,3,3.353,2.327.039-.524-.775-1.149.069-1.526C409.267,2719.422,409.768,2719.9,410.294,2720.183Z" transform="translate(-398.478 -2698.496)"/></g></g></svg>