<svg xmlns="http://www.w3.org/2000/svg" xmlns:xlink="http://www.w3.org/1999/xlink" width="240" height="169" viewBox="0 0 240 169"><defs><style>.a{fill:#cef7ff;}.b,.c{stroke:none;}.c{fill:#f45a59;}.d{filter:url(#a);}</style><filter id="a" x="0" y="0" width="240" height="169" filterUnits="userSpaceOnUse"><feOffset dy="2" input="SourceAlpha"/><feGaussianBlur stdDeviation="4.5" result="b"/><feFlood flood-opacity="0.161"/><feComposite operator="in" in2="b"/><feComposite in="SourceGraphic"/></filter></defs><g class="d" transform="matrix(1, 0, 0, 1, 0, 0)"><g class="a" transform="translate(13.5 11.5)"><path class="b" d="M 203 141.5 L 10 141.5 C 4.761684417724609 141.5 0.5 138.1853637695313 0.5 134.1110992431641 L 0.5 7.888894557952881 C 0.5 3.814631462097168 4.761684417724609 0.5 10 0.5 L 203 0.5 C 208.2383117675781 0.5 212.5 3.814631462097168 212.5 7.888894557952881 L 212.5 134.1110992431641 C 212.5 138.1853637695313 208.2383117675781 141.5 203 141.5 Z"/><path class="c" d="M 10 1 C 5.037384033203125 1 1 4.09033203125 1 7.888885498046875 L 1 134.1111145019531 C 1 137.90966796875 5.037384033203125 141 10 141 L 203 141 C 207.9626159667969 141 212 137.90966796875 212 134.1111145019531 L 212 7.888885498046875 C 212 4.09033203125 207.9626159667969 1 203 1 L 10 1 M 10 0 L 203 0 C 208.5228271484375 0 213 3.531967163085938 213 7.888885498046875 L 213 134.1111145019531 C 213 138.4680328369141 208.5228271484375 142 203 142 L 10 142 C 4.4771728515625 142 0 138.4680328369141 0 134.1111145019531 L 0 7.888885498046875 C 0 3.531967163085938 4.4771728515625 0 10 0 Z"/></g></g></svg>