<svg xmlns="http://www.w3.org/2000/svg" width="47.402" height="47.387" viewBox="0 0 47.402 47.387"><defs><style>.a{fill:#3f3d56;}</style></defs><g transform="translate(-419.917 -1140.878)"><g transform="translate(419.917 1140.878)"><path class="a" d="M462.377,1253.634a55.289,55.289,0,0,1-6.806-.467c-.528-.074-.624.02-.549.555a80.129,80.129,0,0,1,.469,11.323c0,.258-.041.419-.355.412a36.809,36.809,0,0,1-6.618-.287,5.293,5.293,0,0,1-4.451-3.769c-.071-.24-.124-.577-.451-.58-.249,0-.327.277-.389.484-.822,2.773-2.95,3.737-5.566,4.033-1.809.2-3.625.075-5.437.124-.4.011-.471-.156-.471-.509a83.322,83.322,0,0,1,.484-11.257c.072-.53-.092-.568-.555-.5a82.076,82.076,0,0,1-11.329.457c-.291,0-.444-.051-.436-.4a41.307,41.307,0,0,1,.25-6.287c.406-2.275,1.463-4,3.8-4.72.243-.074.572-.127.6-.439.023-.258-.255-.339-.462-.4-2.737-.806-3.736-2.889-4.051-5.482-.225-1.851-.1-3.711-.138-5.567-.007-.314.093-.427.413-.426,2.853.013,5.707-.024,8.556.193.386.029.461.195.5.522a39.229,39.229,0,0,0,1.588,7.3c1.845,5.719,5.761,9.477,11.1,11.974a3.185,3.185,0,0,0,3.078,0c3.76-1.851,7.076-4.177,9.245-7.878a27.951,27.951,0,0,0,3.231-9.885c.035-.218.072-.436.1-.655.2-1.4.2-1.4,1.586-1.465,2.476-.115,4.954-.133,7.432-.117.286,0,.575-.061.563.407a39.528,39.528,0,0,1-.263,6.417c-.421,2.218-1.491,3.9-3.78,4.591-.243.073-.583.131-.606.439-.021.291.309.364.523.427,2.661.781,3.647,2.81,3.977,5.321a53.347,53.347,0,0,1,.15,5.7c.009.391-.182.42-.486.418C465.461,1253.629,464.089,1253.634,462.377,1253.634Z" transform="translate(-419.917 -1218.076)"/><path class="a" d="M508.934,1145.917c0-1.8.007-3.173,0-4.543,0-.317.054-.492.429-.483a37.22,37.22,0,0,1,6.417.271,5.434,5.434,0,0,1,4.33,3.111c.145.329.1.7.36,1.014.326.391.473.271.662-.082a9.907,9.907,0,0,0,.448-1.021c.742-1.87,2.3-2.6,4.087-2.991a33.544,33.544,0,0,1,6.613-.3c.287-.005.392.109.384.391-.071,2.688.069,5.375-.2,8.067-.186,1.834-.242,3.685-.6,5.5-.694,3.539-1.578,7.013-3.764,9.995a15.591,15.591,0,0,1-6.953,5.3,1.064,1.064,0,0,1-.879-.089,15.761,15.761,0,0,1-9.361-10.417,41.076,41.076,0,0,1-1.75-9.257C509.015,1148.749,508.972,1147.118,508.934,1145.917Z" transform="translate(-497.094 -1140.878)"/></g></g></svg>