<svg xmlns="http://www.w3.org/2000/svg" width="32.002" height="31.348" viewBox="0 0 32.002 31.348"><defs><style>.a{fill:#f45a59;}</style></defs><g transform="translate(-1728.906 -1626.842)"><g transform="translate(1728.906 1626.842)"><path class="a" d="M1728.906,1643.879c1.079-.76,2.178-1.493,3.228-2.291a6.68,6.68,0,0,0,1.323-1.333c.7-.952,1.329-1.958,1.98-2.946a4.356,4.356,0,0,1,4-2.134.816.816,0,0,0,.932-.62,6.5,6.5,0,0,1,5.289-4.395,2.917,2.917,0,0,0,1.408-.854,21.813,21.813,0,0,0,1.656-2.039.828.828,0,0,1,1.159-.3c3.478,1.657,6.969,3.288,10.45,4.94.672.318.73.571.327,1.228-.853,1.39-1.717,2.773-2.611,4.213a3.031,3.031,0,0,1,1.576,2.46,2.868,2.868,0,0,1-1.424,2.6,2.622,2.622,0,0,1,.708,2.422,13.977,13.977,0,0,1-1.179,2.287c1.044,1.558.876,2.744-.682,4.2a8.665,8.665,0,0,1,.609,1.745,2.808,2.808,0,0,1-2.825,3.189c-.853.02-1.708-.014-2.56.018a.726.726,0,0,0-.523.306c-1,1.8-2.6,2.092-4.24.765-1.647,1.114-2.446,1.11-3.874-.021-1.44,1.139-2.419,1.143-3.7.111a10.1,10.1,0,0,1-1.948.682,2.2,2.2,0,0,1-2.356-1.357.761.761,0,0,0-.849-.511c-.805.031-1.612,0-2.418.013a.815.815,0,0,1-.922-.758c-.786-3.6-1.6-7.2-2.4-10.8a3.9,3.9,0,0,0-.134-.4Zm18.577,8.767a2.518,2.518,0,0,1,3.082-.554,2.827,2.827,0,0,1,1.419,2.883c.963,0,1.861.007,2.759,0a1.634,1.634,0,0,0,1.719-1.532,1.668,1.668,0,0,0-1.517-1.679,2.894,2.894,0,0,0-.5-.019c-.444.015-.778-.157-.765-.627s.369-.6.8-.6a6.667,6.667,0,0,0,1.341-.08,1.558,1.558,0,0,0,1.236-1.735,1.592,1.592,0,0,0-1.528-1.411c-.142-.008-.326.052-.418-.016-.224-.166-.583-.41-.562-.583a.975.975,0,0,1,.56-.652,3.781,3.781,0,0,1,1.056-.035,1.583,1.583,0,0,0,1.532-1.484,1.553,1.553,0,0,0-1.235-1.667c-.228-.054-.508.011-.693-.1a3.354,3.354,0,0,1-.619-.618c.2-.191.368-.472.6-.549a4.527,4.527,0,0,1,.987-.038,1.616,1.616,0,0,0,1.605-1.716,1.574,1.574,0,0,0-1.714-1.506c-3.46-.005-6.92.006-10.38-.013a.682.682,0,0,0-.754.538q-.874,2.284-1.822,4.539a3.176,3.176,0,0,1-3.156,1.977,2.99,2.99,0,0,1-2.849-2.44,4.725,4.725,0,0,1,.236-2.2c.484-1.446,1.111-2.843,1.709-4.334a3.276,3.276,0,0,0-2.878,1.272,8.964,8.964,0,0,0-.758,1.115,12.128,12.128,0,0,1-5.193,5.243c-.482.242-.512.565-.4,1.041.39,1.655.735,3.321,1.1,4.981.363,1.634.734,3.265,1.1,4.884h2.667c-.051-3.135,2.819-3.942,4.553-2.321,1.4-1.126,2.377-1.122,3.812.016C1745.075,1651.491,1746.051,1651.487,1747.483,1652.645Zm2.09-24.407c-.438.547-.873,1.046-1.259,1.582a4.034,4.034,0,0,1-2.765,1.676,4.828,4.828,0,0,0-3.841,3.113c-.917,2.225-1.8,4.466-2.685,6.7a1.944,1.944,0,0,0,1,2.67,1.91,1.91,0,0,0,2.563-1.216c.666-1.615,1.331-3.232,1.945-4.867a1.139,1.139,0,0,1,1.25-.864c3.458.032,6.916.02,10.374,0a.979.979,0,0,0,.719-.259c.848-1.278,1.648-2.588,2.493-3.935ZM1736.59,1654.9c0,.235-.008.472,0,.707a1.277,1.277,0,1,0,2.554.036c.013-.258,0-.518,0-.777,0-1.214-.418-1.822-1.262-1.837C1737.023,1653.017,1736.588,1653.646,1736.59,1654.9Zm6.4.075h0c0-.259.02-.52,0-.777a1.275,1.275,0,0,0-2.544.025,12.8,12.8,0,0,0,0,1.484,1.283,1.283,0,0,0,1.25,1.206,1.3,1.3,0,0,0,1.3-1.23C1743,1655.452,1742.988,1655.215,1742.988,1654.98Zm3.838-.013h0c0-.212.008-.424,0-.636a1.277,1.277,0,1,0-2.554-.021,13.989,13.989,0,0,0,0,1.413,1.276,1.276,0,0,0,2.544.021C1746.846,1655.487,1746.826,1655.226,1746.826,1654.967Zm1.284-.058c0,.212,0,.424,0,.636a1.282,1.282,0,1,0,2.558.026c.006-.212,0-.424,0-.636,0-1.279-.408-1.892-1.267-1.9S1748.111,1653.648,1748.111,1654.909Z" transform="translate(-1728.906 -1626.842)"/></g></g></svg>