<svg xmlns="http://www.w3.org/2000/svg" width="56.398" height="72.773" viewBox="0 0 56.398 72.773"><defs><style>.a{fill:#fff;}</style></defs><g transform="translate(-2113.9 -1085.82)"><g transform="translate(2113.9 1085.82)"><path class="a" d="M2165,1113.525c1.719,2.889.923,4.2-4.1,6.855.1,2.815.057,2.921-2.2,5.234.848,2.74.6,3.453-1.785,5.364-.279.224-.665.66-.608.9.475,2.023-.84,2.886-2.235,3.8a5.266,5.266,0,0,0-1.116,1.416c-.179.249-.25.616-.477.785a70.182,70.182,0,0,1-5.876,4.033,16.273,16.273,0,0,1-2.473,3.182,3.767,3.767,0,0,0-1.563,4.4c-2.691-2.058-5.465-4.029-6.781-7.281a5.044,5.044,0,0,1,.1-2.91c.612-2.359,1.414-4.769.831-7.139a3.4,3.4,0,0,0-2.571-2.891,17.544,17.544,0,0,1-4.34-1.58,4.05,4.05,0,0,1-2.607-4.311c-1.745-.688-3.513-1.251-5.155-2.067-2.221-1.1-2.607-2.3-1.814-4.447a39.429,39.429,0,0,1-4.383-3.362c-1.363-1.367-1.15-2.788.265-5.067-2.96-4.123-2.979-6.058.082-8.771-.411,1.757-.227,3.332,1.033,4.436a15.474,15.474,0,0,0,3.82,2.582c4.768,2.1,9.853,2.637,15.011,2.686,7.836.075,15.483-.933,22.717-4.114a21.6,21.6,0,0,0,4.256-2.51c3.509-2.645,3.813-4.607,1.216-8.638,2.7,1.3,5.064,2.382,5.844,5.129.927,3.266-1.514,4.985-3.472,6.879C2168.533,1109.7,2168.358,1110.533,2165,1113.525Zm-48.116-4.239a13.415,13.415,0,0,0,1.334,2.079,12.646,12.646,0,0,0,6.412,3.263,58.742,58.742,0,0,0,27.06.071c3.751-.811,7.434-1.9,10.453-4.444a15.943,15.943,0,0,0,1.829-2.261C2148.284,1113.892,2132.889,1115.438,2116.887,1109.286Zm4.827,8.257a6.709,6.709,0,0,0,1.51,1.368,25.166,25.166,0,0,0,4.878,1.882,54.5,54.5,0,0,0,20.493.137,31.17,31.17,0,0,0,10.883-3.38,25.514,25.514,0,0,0,2.592-1.948A73.678,73.678,0,0,1,2121.713,1117.543Zm7.611,6.07-.232.493a21.926,21.926,0,0,0,2.867,1.9,22.383,22.383,0,0,0,10.62,1.623c4.574-.2,9.049-.966,13.033-3.416a22.826,22.826,0,0,0,2.786-2.382l-.273-.4A69.335,69.335,0,0,1,2129.325,1123.614Zm8.625,6.52a10.285,10.285,0,0,0,6.269,1.961,19.218,19.218,0,0,0,10.888-2.358c1.223-.714,2.388-1.574,2.479-3.351C2151.326,1129.6,2144.757,1130.408,2137.95,1130.134Zm-.1,2.7c2.868,3.227,6.677,3.141,10.478,2.86,3.545-.261,6.067-1.689,6.639-3.557C2149.325,1134.253,2143.649,1134.8,2137.85,1132.835Zm14.146,3.952c-4.909,1-9.687,1.036-14.606-1.658a4.613,4.613,0,0,0,3.63,3.114C2144.862,1139.2,2148.615,1139.313,2152,1136.787Zm-15.093,1.021c1.871,3.18,8.959,4.241,11.464,1.966C2144.446,1140.162,2140.669,1140.142,2136.9,1137.808Zm-.423,2.193c1.689,2.411,4.241,2.97,6.941,3.1,1.387.068,1.815-.234,2.3-1.184C2142.469,1142.056,2139.328,1141.788,2136.48,1140Zm-.062,2.017c1.531,2.428,5.68,3.641,7.34,2.189Z" transform="translate(-2113.9 -1091.525)"/><path class="a" d="M2168.719,1095.04c.372-2.063-.064-3.251-1.884-3.979a25.546,25.546,0,0,0-6.374-1.8c-9.863-1.166-19.519-.354-28.695,3.772-1.852.833-3.554,1.983-3.789,4.328-2.368-1.213-2.637-3.152-.639-4.929,2.417-2.149,5.415-3.188,8.452-4.04a67.148,67.148,0,0,1,26.115-2.128,28.1,28.1,0,0,1,7.312,1.874c3.682,1.508,3.816,3.946.581,6.25C2169.51,1094.6,2169.191,1094.758,2168.719,1095.04Z" transform="translate(-2122.227 -1085.82)"/><path class="a" d="M2152.147,1112.856c-1.695-1.2-1.957-2.291-.391-3.157a30.147,30.147,0,0,1,7.323-3.005,47.254,47.254,0,0,1,21.175-.617,3.736,3.736,0,0,1,1.333.387c.937.661,2.408,1.349,2.515,2.155.115.853-1.1,1.855-1.985,2.7a2.371,2.371,0,0,0-1.879-2.744,32.325,32.325,0,0,0-6.332-1.339,43.438,43.438,0,0,0-17.9,2.256C2154.3,1110.121,2152.521,1110.828,2152.147,1112.856Z" transform="translate(-2139.231 -1099.121)"/><path class="a" d="M2167.254,1123.889c-.739-.771.025-1.48.786-1.807a26.8,26.8,0,0,1,5.239-1.794,20.719,20.719,0,0,1,10.443.223c1.691.537,1.855,1.423.921,2.3a14.412,14.412,0,0,0-3.266-1.6,20.49,20.49,0,0,0-10.264.676A25.441,25.441,0,0,0,2167.254,1123.889Z" transform="translate(-2150.402 -1109.152)"/><path class="a" d="M2245.6,1318.642l-.291.035-.019-.172c.048,0,.1-.026.14-.008A.994.994,0,0,1,2245.6,1318.642Z" transform="translate(-2204.301 -1245.904)"/></g></g></svg>