<svg xmlns="http://www.w3.org/2000/svg" width="88" height="95.985" viewBox="0 0 88 95.985"><defs><style>.a{isolation:isolate;}.b{fill:#f45a59;}</style></defs><g class="a" transform="translate(0.011)"><g transform="translate(-0.011)"><path class="b" d="M36.659,0a78.748,78.748,0,0,1,6.583,6.876c2.7,2.988,5.265,6.089,7.766,9.243.421.53.481.843-.126,1.234a10.347,10.347,0,0,0-1.551,1.2c-.646.62-1.067.654-1.67-.141-2.686-3.527-5.586-6.878-8.563-10.163-.838-.924-1.719-1.814-2.521-2.77-.483-.575-.774-.464-1.232.03q-5.263,5.657-10.124,11.664A157.876,157.876,0,0,0,14.057,32.763a75.678,75.678,0,0,0-8.2,16.864c-4.093,12.839-1.332,24.06,8.2,33.541a30.2,30.2,0,0,0,17.2,8.411,31.2,31.2,0,0,0,18.739-2.9c.757-.37,1.161-.334,1.461.494a12.806,12.806,0,0,0,.766,1.5c.582,1.119.6,1.148-.582,1.69-10.46,4.8-20.946,4.865-31.359-.056A34.935,34.935,0,0,1,4.219,76.881,35.7,35.7,0,0,1,.113,62.993c-.625-6.946,1.181-13.4,3.848-19.7A103.459,103.459,0,0,1,14.132,25.331,182.932,182.932,0,0,1,25.843,10.159c2.609-3.067,5.327-6.037,8.091-8.963A10.818,10.818,0,0,1,35.346,0Z" transform="translate(0.011)"/><path class="b" d="M148.86,146.8c0-1.843-.008-3.683,0-5.526.009-1.734.717-2.451,2.434-2.459,2.122-.011,4.245,0,6.369,0,.364,0,.695.053.9-.436s-.137-.622-.347-.836c-1.473-1.486-2.958-2.958-4.44-4.436-1.309-1.3-1.317-2.3-.019-3.6q3.871-3.877,7.749-7.749c1.334-1.332,2.3-1.322,3.657.034q2.152,2.152,4.3,4.307c.276.276.49.633,1.016.413.545-.229.372-.657.376-1.027.013-2.154,0-4.309.008-6.463a2,2,0,0,1,2.209-2.2q5.761-.02,11.521,0a2.04,2.04,0,0,1,2.275,2.254c.026,2.154.006,4.307.009,6.461,0,.391-.085.8.438,1.01.5.2.674-.182.917-.423,1.508-1.493,3-3,4.508-4.5a2.04,2.04,0,0,1,3.317-.011q4.085,4.06,8.15,8.144a1.971,1.971,0,0,1,.011,3.05c-1.531,1.561-3.09,3.09-4.63,4.641-.265.267-.663.47-.409,1,.224.473.6.366.952.366,2,0,3.995-.011,5.993-.011,2.109,0,2.768.693,2.763,2.827-.009,3.591,0,7.18-.008,10.772-.006,1.72-.719,2.423-2.453,2.429-2.122.009-4.247,0-6.369.006-.325,0-.665-.1-.86.34s.019.68.3.958q2.265,2.24,4.506,4.5c1.225,1.232,1.236,2.244.03,3.454q-3.97,3.978-7.947,7.949c-1.166,1.163-2.209,1.151-3.4-.026q-2.293-2.276-4.577-4.562c-.231-.229-.385-.511-.845-.3-.439.2-.391.5-.391.836,0,2.184.021,4.371-.009,6.555a2.015,2.015,0,0,1-2.308,2.3q-5.714.039-11.425.009a2.021,2.021,0,0,1-2.275-2.318c-.006-2.154.006-4.309,0-6.463,0-.347.105-.693-.4-.918s-.678.107-.92.349c-1.529,1.518-3.045,3.048-4.573,4.566a2.068,2.068,0,0,1-3.326-.009q-3.975-3.972-7.947-7.95c-1.217-1.226-1.2-2.235.024-3.46q2.282-2.288,4.568-4.572c.2-.207.471-.346.28-.772a.718.718,0,0,0-.791-.47q-3.372.011-6.745,0a1.97,1.97,0,0,1-2.169-2.128C148.841,150.732,148.86,148.765,148.86,146.8Zm8.781-15.546c1.66,1.651,3.242,3.2,4.8,4.78a2,2,0,0,1,.432,2.626c-.379.851-.732,1.713-1.074,2.581a2.092,2.092,0,0,1-2.321,1.6c-1.966,0-3.935.021-5.9-.024-.6-.013-.719.163-.712.729.034,2.184.038,4.372,0,6.557-.011.6.19.721.744.712,1.966-.032,3.935-.024,5.9-.008a2.082,2.082,0,0,1,2.3,1.647,19.124,19.124,0,0,0,.964,2.321,2.127,2.127,0,0,1-.479,3.005c-1.32,1.33-2.624,2.678-3.987,3.961-.55.518-.471.8.032,1.281,1.512,1.446,2.986,2.932,4.44,4.436.409.424.648.471,1.078.024,1.364-1.418,2.765-2.8,4.164-4.183a2.022,2.022,0,0,1,2.7-.473c.794.353,1.591.7,2.406,1a2.18,2.18,0,0,1,1.769,2.5c.009,1.936.019,3.871-.009,5.807-.008.52.126.695.672.687q3.324-.045,6.651,0c.537.008.678-.169.671-.687-.028-1.936-.009-3.873-.017-5.807a2.169,2.169,0,0,1,1.754-2.494c.755-.28,1.5-.59,2.231-.932a2.155,2.155,0,0,1,3,.524c1.195,1.189,2.378,2.391,3.582,3.572.836.823,1.163.817,1.955.026,1.371-1.367,2.723-2.753,4.117-4.1.421-.408.488-.644.021-1.089-1.4-1.334-2.753-2.723-4.117-4.1-1.016-1.024-1.087-1.606-.466-2.93.342-.729.64-1.48.922-2.235a2.206,2.206,0,0,1,2.5-1.771c1.9-.011,3.809-.017,5.714,0,.547.006.759-.131.748-.732-.038-2.186-.041-4.372,0-6.557.013-.616-.2-.708-.742-.7-2,.03-4,.017-6,.009a1.971,1.971,0,0,1-2.113-1.482c-.34-.866-.695-1.726-1.078-2.575a2.127,2.127,0,0,1,.5-2.861c1.392-1.39,2.77-2.795,4.187-4.16.389-.376.372-.584-.006-.952-1.566-1.525-3.122-3.061-4.632-4.639-.456-.477-.691-.374-1.087.036-1.347,1.392-2.725,2.752-4.094,4.119a2.118,2.118,0,0,1-2.862.47c-.757-.357-1.529-.687-2.312-.984-1.36-.515-1.726-.994-1.726-2.4,0-1.966-.017-3.935.011-5.9.008-.494-.133-.622-.624-.629a12.677,12.677,0,0,1-1.636.19,18.137,18.137,0,0,0-4.972-.013c-.716.085-.766.338-.759.9.026,1.841.021,3.683.017,5.526a2.1,2.1,0,0,1-1.565,2.265c-.836.336-1.672.669-2.489,1.046a2.132,2.132,0,0,1-2.93-.52q-2.059-2.048-4.106-4.108c-.27-.27-.453-.552-.881-.122C161.2,127.782,159.429,129.495,157.641,131.253Z" transform="translate(-120.893 -94.862)"/><path class="b" d="M65.668,319.028c.624,0,1.356-.2,1.843.054.528.282.167,1.074.218,1.636a20.138,20.138,0,0,0,14.609,17.542,17.967,17.967,0,0,0,4.611.672c.55.006.776.169.744.757a21.025,21.025,0,0,0,0,2.62c.043.624-.208.714-.748.693a24.1,24.1,0,0,1-23.292-22.739c-.088-1.241-.09-1.243,1.168-1.255.282,0,.562,0,.843,0Z" transform="translate(-51.671 -259.046)"/><path class="b" d="M265.395,223.475a10,10,0,1,1-10.116,10.082A9.991,9.991,0,0,1,265.395,223.475Zm-.133,15.961a5.985,5.985,0,0,0,6.044-6.052,6.053,6.053,0,0,0-5.916-5.922,5.964,5.964,0,0,0-6.055,5.943A5.9,5.9,0,0,0,265.261,239.436Z" transform="translate(-207.33 -181.5)"/></g></g></svg>