<svg xmlns="http://www.w3.org/2000/svg" width="27.479" height="29.686" viewBox="0 0 27.479 29.686"><defs><style>.a{fill:#f45a59;stroke:#fff;stroke-width:0.5px;}</style></defs><g transform="translate(-1583.378 -1879.839)"><g transform="translate(1583.627 1880.089)"><path class="a" d="M1607.668,1880.089c.073.023.146.05.22.069a1.978,1.978,0,0,1,.058,3.822.377.377,0,0,0-.311.318c-.184.722-.381,1.441-.577,2.171.109.055.2.1.292.148a5.682,5.682,0,0,1,3.239,5.2c.034,2.3.011,4.606.006,6.91a5.8,5.8,0,0,1-5.778,5.777q-4.6.006-9.206,0a.7.7,0,0,0-.492.176c-1.692,1.445-3.392,2.881-5.085,4.324a.812.812,0,0,1-.931.194.822.822,0,0,1-.463-.856c.015-1.208.012-2.416.026-3.624,0-.193-.052-.26-.25-.3a5.809,5.809,0,0,1-4.791-5.829q0-3.26,0-6.519a5.783,5.783,0,0,1,3.45-5.55c.023-.011.044-.026.09-.054-.054-.21-.107-.426-.164-.641-.091-.344-.2-.684-.272-1.032a1.074,1.074,0,0,0-.761-.957,1.837,1.837,0,0,1-1.122-1.887,1.975,1.975,0,0,1,1.427-1.771c.09-.026.177-.061.266-.091h.574a.589.589,0,0,0,.113.053,1.912,1.912,0,0,1,1.5,1.407,1.937,1.937,0,0,1-.564,2,.326.326,0,0,0-.071.262c.138.565.293,1.126.443,1.688.145.543.146.543.7.525l.156,0h16.172c.188-.7.369-1.406.569-2.106a.394.394,0,0,0-.119-.451,1.968,1.968,0,0,1,.869-3.292c.091-.025.18-.057.269-.086Zm-17.458,26.7c.114-.088.181-.137.244-.19,1.306-1.107,2.615-2.211,3.914-3.327a1.258,1.258,0,0,1,.874-.325q4.747.011,9.493,0a4.243,4.243,0,0,0,4.3-4.3q0-3.364,0-6.728a4.244,4.244,0,0,0-4.32-4.332q-7.6,0-15.2,0a4.252,4.252,0,0,0-4.317,4.312q0,3.377,0,6.754a4.26,4.26,0,0,0,4.151,4.3.8.8,0,0,1,.878.9c0,.713-.009,1.425-.013,2.138C1590.21,1906.231,1590.211,1906.48,1590.211,1906.784Zm17.612-24.689a.415.415,0,1,0-.829-.029.415.415,0,0,0,.829.029Zm-21,.4a.414.414,0,0,0,.006-.828.419.419,0,0,0-.413.413A.409.409,0,0,0,1586.822,1882.493Z" transform="translate(-1583.627 -1880.089)"/><path class="a" d="M1675.936,2204.683a18.242,18.242,0,0,1-6.426-1.092,8.494,8.494,0,0,1-2.391-1.358.818.818,0,0,1-.338-.7.764.764,0,0,1,1.208-.594,10.047,10.047,0,0,0,5.036,1.957,18.628,18.628,0,0,0,7.473-.34,8.243,8.243,0,0,0,3.31-1.582.763.763,0,0,1,1.094.115.777.777,0,0,1-.118,1.1,8.531,8.531,0,0,1-2.743,1.517A18.551,18.551,0,0,1,1675.936,2204.683Z" transform="translate(-1662.438 -2184.042)"/><path class="a" d="M1670.282,2065.835a3.623,3.623,0,0,1,3.6,3.542.782.782,0,0,1-.713.842.769.769,0,0,1-.849-.781,2.027,2.027,0,0,0-4.053-.01.769.769,0,0,1-.734.792.784.784,0,0,1-.829-.859,3.594,3.594,0,0,1,2.784-3.412C1669.746,2065.894,1670.016,2065.872,1670.282,2065.835Z" transform="translate(-1662.363 -2056.136)"/><path class="a" d="M1879.892,2069.626a3.585,3.585,0,0,1,7.163.041.787.787,0,1,1-1.562.06,2.02,2.02,0,0,0-4.038-.012c-.028.553-.347.883-.832.86S1879.866,2070.185,1879.892,2069.626Z" transform="translate(-1864.421 -2056.491)"/></g></g></svg>