<svg xmlns="http://www.w3.org/2000/svg" width="24.956" height="23.55" viewBox="0 0 24.956 23.55"><defs><style>.a{fill:#707070;}</style></defs><g transform="translate(-978.027 -731.462)"><path class="a" d="M978.027,743.506c.2-.224.377-.464.591-.669q5-4.8,10.016-9.583.864-.827,1.731-1.65c.047-.044.1-.083.167-.142.223.208.443.409.659.615q5.766,5.517,11.531,11.036a1.059,1.059,0,0,1,.2.24.472.472,0,0,1-.123.593.464.464,0,0,1-.623-.028c-.266-.239-.522-.489-.781-.737l-10.6-10.142c-.276-.264-.276-.263-.55,0l-11.182,10.695c-.484.464-.722.434-1.044-.129Z"/><path class="a" d="M981.175,749.48q0-2.611,0-5.224c0-.4.174-.628.484-.634a.464.464,0,0,1,.493.437c.008.081,0,.163,0,.244v9.374c0,.348,0,.349.345.349h4.589c.335,0,.335,0,.335-.328,0-2.05.005-4.1-.005-6.151,0-.25.072-.314.317-.313,1.847.01,3.694.006,5.541.006.351,0,.351,0,.351.341,0,2.05,0,4.1-.005,6.151,0,.236.067.3.3.3q2.331-.015,4.662,0c.246,0,.318-.067.317-.315q-.012-4.418-.005-8.836c0-.057,0-.114,0-.171,0-.338.186-.569.462-.583a.53.53,0,0,1,.516.542c.006.064,0,.13,0,.195v9.812c0,.331,0,.331-.337.331h-6.566c-.327,0-.327,0-.327-.339V748.54c0-.318,0-.319-.326-.319q-1.794,0-3.588,0c-.328,0-.329,0-.329.34,0,2.05,0,4.1.005,6.151,0,.239-.072.3-.3.3q-3.32-.012-6.639,0c-.244,0-.3-.081-.3-.309C981.179,752.962,981.175,751.221,981.175,749.48Z"/><path class="a" d="M998.811,735.367c0,.618,0,1.237,0,1.855,0,.356-.2.6-.477.582a.5.5,0,0,1-.47-.571c.016-.919,0-1.839.01-2.759,0-.24-.064-.325-.316-.322-.936.014-1.872.005-2.807.007a.451.451,0,0,1-.474-.274.572.572,0,0,1,.025-.451.642.642,0,0,1,.441-.245c1.294-.019,2.588-.009,3.882-.014.182,0,.188.105.188.239C998.81,734.065,998.811,734.716,998.811,735.367Z"/></g></svg>