<svg xmlns="http://www.w3.org/2000/svg" width="46" height="36.953" viewBox="0 0 46 36.953"><defs><style>.a{fill:#ee6767;}</style></defs><g transform="translate(2 -437)"><g transform="translate(-2 437)"><path class="a" d="M250.765,358.891q-9.991,0-19.983,0c-2.284,0-3.028-.751-3.03-3.059q-.01-10.326,0-20.652c0-2.252.838-3.089,3.065-3.09q19.909-.007,39.819,0c2.252,0,3.1.824,3.1,3.053q.017,10.4,0,20.8c0,2.183-.787,2.948-2.992,2.95Q260.756,358.9,250.765,358.891Zm-.025-1.793c6.512,0,13.023-.026,19.535.024,1.17.009,1.608-.268,1.6-1.518q-.083-10.1,0-20.2c.008-1.153-.375-1.495-1.507-1.493q-19.607.045-39.215,0c-1.117,0-1.529.309-1.521,1.479q.07,10.1,0,20.2c-.01,1.231.395,1.542,1.583,1.532C237.716,357.071,244.228,357.1,250.74,357.1Z" transform="translate(-227.747 -332.085)"/><path class="a" d="M237.977,435.487c2.772,0,5.543-.019,8.314.011a1.617,1.617,0,0,0,1.7-.924,3.587,3.587,0,0,1,6.385.035,1.617,1.617,0,0,0,1.727.886c5.2-.016,10.4-.009,15.607-.009a2.488,2.488,0,0,1,1.008.028,6.356,6.356,0,0,1,1.113.889c-.377.291-.741.808-1.135.832-1.6.1-3.207.044-4.811.044-3.938,0-7.877.015-11.815-.012a1.645,1.645,0,0,0-1.71.938,3.579,3.579,0,0,1-6.384-.027,1.632,1.632,0,0,0-1.721-.91c-5.348.021-10.7.011-16.045.011a2.586,2.586,0,0,1-1.01-.027,8.115,8.115,0,0,1-1.254-.883c.426-.294.846-.831,1.279-.842C232.141,435.451,235.06,435.487,237.977,435.487Zm15.039.856a1.7,1.7,0,0,0-1.841-1.752,1.816,1.816,0,0,0,0,3.632A1.739,1.739,0,0,0,253.016,436.342Z" transform="translate(-227.888 -403.198)"/><path class="a" d="M287.9,360.263c0-1.937-.036-3.874.009-5.809.035-1.475.595-1.755,1.817-.9,2.743,1.907,5.453,3.86,8.183,5.785,1,.706.916,1.394-.014,2.059-2.757,1.971-5.509,3.949-8.291,5.884-.975.678-1.657.312-1.689-.915C287.864,364.331,287.9,362.3,287.9,360.263Zm1.934,4.6,6.3-4.506-6.3-4.457Z" transform="translate(-270.278 -346.928)"/></g></g></svg>