<svg xmlns="http://www.w3.org/2000/svg" width="40" height="24.355" viewBox="0 0 40 24.355"><defs><style>.a{fill:#f56b6a;}</style></defs><g transform="translate(-20 -416)"><g transform="translate(20 416)"><path class="a" d="M114.886,268.947H98.91c-2.393,0-3.988-1.352-3.988-3.377q0-8.783,0-17.566c0-2.051,1.59-3.395,4.017-3.395,10.651,0,21.3.02,31.953-.016,2.276-.008,4.047,1.519,4.03,3.416-.055,5.855-.019,11.711-.02,17.566,0,2.026-1.594,3.372-3.991,3.372Zm.007-1.283h15.93c1.67,0,2.566-.756,2.566-2.165q0-8.7,0-17.408c0-1.441-.888-2.2-2.574-2.2H99c-1.661,0-2.571.767-2.571,2.168q0,8.724,0,17.448c0,1.385.906,2.158,2.532,2.158Z" transform="translate(-94.921 -244.593)"/><path class="a" d="M141.586,292.458a.85.85,0,0,1,.6.226q3.315,2.433,6.635,4.862,3.637,2.668,7.265,5.345a.536.536,0,0,0,.775,0q5.7-4.25,11.422-8.48,1.153-.855,2.307-1.71a.864.864,0,0,1,1.165-.007c.289.288.233.623-.187.936q-4.8,3.574-9.607,7.142-2.394,1.778-4.791,3.553a.916.916,0,0,1-1.383,0q-7.134-5.227-14.269-10.455a4.322,4.322,0,0,1-.513-.412.5.5,0,0,1-.09-.671A.708.708,0,0,1,141.586,292.458Z" transform="translate(-136.487 -288.608)"/><path class="a" d="M370.134,411.13a.578.578,0,0,1-.4.581.851.851,0,0,1-.871-.12q-.975-.724-1.952-1.445-3.474-2.58-6.951-5.157c-.321-.236-.368-.368-.009-.624.745-.529.736-.559,1.445-.032q4.218,3.133,8.427,6.276A.615.615,0,0,1,370.134,411.13Z" transform="translate(-334.669 -391.145)"/><path class="a" d="M141.59,410.89a.788.788,0,0,1-.69-.4.57.57,0,0,1,.246-.752c.744-.552,1.494-1.1,2.243-1.647,2.21-1.618,4.427-3.23,6.626-4.859a.535.535,0,0,1,.8,0c.7.57.722.558-.013,1.1q-4.288,3.153-8.578,6.3A1.2,1.2,0,0,1,141.59,410.89Z" transform="translate(-136.497 -390.313)"/></g></g></svg>