<svg xmlns="http://www.w3.org/2000/svg" width="23.394" height="28.701" viewBox="0 0 23.394 28.701"><defs><style>.a{fill:#f45a59;}</style></defs><path class="a" d="M363.559,1050.094c-3.177,0-6.354,0-9.531-.006a4.037,4.037,0,0,1-1.053-.143,1.426,1.426,0,0,1-1.1-1.477,4.129,4.129,0,0,1,1.953-3.6,2.79,2.79,0,0,0,1.315-2.025,23.945,23.945,0,0,0,.057-6.207,8.441,8.441,0,0,1,16.623-2.843,9.217,9.217,0,0,1,.093,3.166,19.873,19.873,0,0,0-.005,4.93c.039.314.042.633.089.946a2.81,2.81,0,0,0,1.293,2.014,4.172,4.172,0,0,1,1.941,3.017,3.127,3.127,0,0,1,0,.922,1.55,1.55,0,0,1-1.5,1.258,5.617,5.617,0,0,1-.687.043Q368.3,1050.1,363.559,1050.094Zm.006-.973q4.777,0,9.554,0a3.082,3.082,0,0,0,.772-.1.5.5,0,0,0,.412-.563,3.335,3.335,0,0,0-.056-.614,3.287,3.287,0,0,0-1.5-2.187,3.675,3.675,0,0,1-1.631-2.307,11.231,11.231,0,0,1-.143-1.129,21.028,21.028,0,0,1-.033-5.214,8.74,8.74,0,0,0-.064-3,7.476,7.476,0,0,0-14.744,2.312c.1.9.16,1.8.206,2.7a26.043,26.043,0,0,1-.225,3.862,3.369,3.369,0,0,1-.776,1.907,5.647,5.647,0,0,1-1,.9,3.365,3.365,0,0,0-1.5,2.576c-.041.512.121.73.636.819a3.5,3.5,0,0,0,.591.041Q358.812,1049.123,363.566,1049.121Z" transform="translate(-351.871 -1024.773)"/><path class="a" d="M536.876,1525a3.3,3.3,0,0,1-3.215-2.056.48.48,0,0,1,.519-.688.514.514,0,0,1,.4.366,2.251,2.251,0,0,0,2.931,1.248,2.221,2.221,0,0,0,1.268-1.277.486.486,0,1,1,.9.359,2.074,2.074,0,0,1-.1.24A3.136,3.136,0,0,1,536.876,1525Z" transform="translate(-524.972 -1496.295)"/><path class="a" d="M556.921,979.236c-.21-.006-.336-.171-.427-.407a1.2,1.2,0,0,0-1.894-.534,1.737,1.737,0,0,0-.406.569c-.151.3-.382.448-.655.347a.5.5,0,0,1-.262-.691,2.2,2.2,0,0,1,4.144.01A.5.5,0,0,1,556.921,979.236Z" transform="translate(-543.65 -977.059)"/></svg>