<svg xmlns="http://www.w3.org/2000/svg" width="51" height="49.237" viewBox="0 0 51 49.237"><defs><style>.a{fill:#2e3136;}.b{fill:#f45a59;}.c{fill:#fff;font-size:12px;font-family:PTMono-Bold, PT Mono;font-weight:700;}</style></defs><g transform="translate(-39 -128.763)"><g transform="translate(-231.496 -599.286)"><g transform="translate(270.496 728.049)"><path class="a" d="M275.3,762.488V748.6a13.67,13.67,0,0,1-2.878-.049,2.86,2.86,0,0,1-1.866-1.2,2.355,2.355,0,0,1,.658-1.964c1.523-1.57,3.243-2.949,4.77-4.515a3.451,3.451,0,0,0,.913-2.078c.108-2.57.078-5.148.027-7.722-.021-1.073.378-1.478,1.441-1.431,1.312.058,2.629,0,3.943.017,3.258.045,2.544-.316,3.025,2.66,1.361-1.255,2.667-2.392,3.889-3.611.81-.808,1.422-.916,2.331-.07,5.933,5.521,11.931,10.974,17.848,16.513a3.017,3.017,0,0,1,.9,2.2c-.148,1.211-1.31,1.266-2.338,1.251-.757-.011-1.514,0-2.393,0v13.886c1.088,0,2.118-.062,3.134.032.385.036.736.43,1.1.66-.375.228-.746.65-1.124.655-3.614.053-7.229.038-10.844.038q-12.407,0-24.814-.006a2.357,2.357,0,0,1-.815-.018,8.578,8.578,0,0,1-1.135-.646c.356-.238.695-.644,1.071-.682C273.117,762.423,274.1,762.488,275.3,762.488Zm33.575-15.32.152-.493-18.6-17.1c-1.781,1.639-3.42,3.175-5.1,4.668a4.08,4.08,0,0,1-1.124.5,4.4,4.4,0,0,1-.434-1.144c-.068-.794-.02-1.6-.02-2.432h-5.44c0,2.668-.063,5.233.027,7.794a3.344,3.344,0,0,1-1.292,2.96c-1.814,1.53-3.506,3.2-5.249,4.818l.16.431a26.74,26.74,0,0,0,2.871-.019c1.5-.163,2.055.368,2,1.918-.1,2.847-.03,5.7-.03,8.551v4.767h14.75v-1.923c0-2.906.035-5.812-.015-8.716-.02-1.2.4-1.711,1.629-1.633,1.147.073,2.3.011,3.453.016,3.677.016,3.033-.249,3.068,3.05.032,3.048.007,6.1.007,9.161h4.3c0-4.575.032-9.012-.02-13.449-.015-1.261.378-1.833,1.7-1.738C306.726,747.229,307.8,747.168,308.872,747.168Zm-15.743,4.5v10.678h5.111V751.665Z" transform="translate(-270.496 -728.049)"/><path class="a" d="M338.024,846.446c-1.143,0-2.289.05-3.425-.034-.317-.023-.6-.444-.906-.683.3-.227.6-.643.9-.65q3.344-.085,6.691,0c.339.008.67.38,1,.583-.334.263-.65.72-1.006.753C340.206,846.511,339.112,846.448,338.024,846.446Z" transform="translate(-312.812 -806.383)"/><path class="a" d="M340.688,857.7a18.724,18.724,0,0,1-2.125-.026c-.3-.034-.561-.352-.84-.541.27-.272.528-.763.813-.779a37.678,37.678,0,0,1,4.251,0c.3.017.579.48.867.737-.28.2-.542.54-.842.577a17.365,17.365,0,0,1-2.124.028Z" transform="translate(-315.511 -813.923)"/><path class="a" d="M300.023,789.353c.064-3.77-.615-3.405,3.369-3.4,4.153,0,3.523-.408,3.525,3.584,0,3.731.579,3.239-3.29,3.283h-.164C300.023,792.816,300.023,792.816,300.023,789.353Zm5.393,2.034v-3.849h-3.873v3.849Z" transform="translate(-290.261 -766.811)"/></g></g><g transform="translate(2 -355)"><circle class="b" cx="10.5" cy="10.5" r="10.5" transform="translate(65 512)"/><text class="c" transform="translate(72 516)"><tspan x="0" y="11">!</tspan></text></g></g></svg>