<svg xmlns="http://www.w3.org/2000/svg" width="39.815" height="51.375" viewBox="0 0 39.815 51.375"><defs><style>.a{fill:#f56b6a;}</style></defs><g transform="translate(-2113.9 -1085.82)"><g transform="translate(2113.9 1085.82)"><path class="a" d="M2149.977,1107.817c1.214,2.04.651,2.963-2.9,4.839.072,1.987.04,2.062-1.552,3.7.6,1.934.423,2.438-1.26,3.787-.2.158-.47.466-.429.638.335,1.428-.593,2.038-1.578,2.683a3.707,3.707,0,0,0-.787,1c-.126.176-.177.435-.337.554a49.511,49.511,0,0,1-4.149,2.847,11.485,11.485,0,0,1-1.746,2.247,2.659,2.659,0,0,0-1.1,3.1c-1.9-1.453-3.858-2.844-4.787-5.14a3.559,3.559,0,0,1,.073-2.054c.432-1.665,1-3.367.587-5.04a2.4,2.4,0,0,0-1.815-2.041,12.38,12.38,0,0,1-3.064-1.115,2.859,2.859,0,0,1-1.84-3.044c-1.232-.486-2.48-.883-3.639-1.459-1.568-.779-1.841-1.622-1.281-3.139a27.822,27.822,0,0,1-3.094-2.374c-.962-.965-.812-1.969.187-3.577-2.09-2.91-2.1-4.277.058-6.192a2.98,2.98,0,0,0,.729,3.131,10.923,10.923,0,0,0,2.7,1.823,26.447,26.447,0,0,0,10.6,1.9,38.318,38.318,0,0,0,16.037-2.9,15.248,15.248,0,0,0,3-1.772c2.477-1.867,2.692-3.252.858-6.1,1.9.921,3.575,1.682,4.126,3.621.654,2.306-1.069,3.52-2.451,4.856C2152.469,1105.114,2152.346,1105.705,2149.977,1107.817Zm-33.969-2.993a9.46,9.46,0,0,0,.942,1.468,8.926,8.926,0,0,0,4.527,2.3,41.468,41.468,0,0,0,19.1.05,16.389,16.389,0,0,0,7.379-3.138,11.239,11.239,0,0,0,1.291-1.6C2138.174,1108.076,2127.305,1109.168,2116.009,1104.824Zm3.407,5.829a4.729,4.729,0,0,0,1.066.966,17.771,17.771,0,0,0,3.444,1.329,38.478,38.478,0,0,0,14.467.1,22,22,0,0,0,7.683-2.386,18.038,18.038,0,0,0,1.83-1.375A52.014,52.014,0,0,1,2119.416,1110.654Zm5.374,4.286-.164.348a15.461,15.461,0,0,0,2.024,1.344,15.8,15.8,0,0,0,7.5,1.146,18.684,18.684,0,0,0,9.2-2.411,16.087,16.087,0,0,0,1.967-1.682l-.192-.286A48.953,48.953,0,0,1,2124.79,1114.939Zm6.089,4.6a7.259,7.259,0,0,0,4.425,1.385,13.567,13.567,0,0,0,7.687-1.665,2.852,2.852,0,0,0,1.75-2.365A27.092,27.092,0,0,1,2130.879,1119.542Zm-.071,1.907c2.024,2.279,4.713,2.217,7.4,2.02,2.5-.184,4.283-1.192,4.687-2.511A17.466,17.466,0,0,1,2130.808,1121.449Zm9.986,2.79c-3.466.7-6.838.731-10.311-1.171a3.256,3.256,0,0,0,2.563,2.2C2135.758,1125.942,2138.407,1126.023,2140.794,1124.24Zm-10.655.721c1.321,2.245,6.325,2.994,8.093,1.388C2135.464,1126.622,2132.8,1126.607,2130.139,1124.96Zm-.3,1.548c1.192,1.7,2.994,2.1,4.9,2.19.979.048,1.281-.165,1.62-.836A10.912,10.912,0,0,1,2129.841,1126.508Zm-.044,1.424c1.081,1.714,4.01,2.57,5.182,1.545Z" transform="translate(-2113.9 -1092.286)"/><path class="a" d="M2156.159,1092.329c.263-1.456-.045-2.3-1.33-2.809a18.033,18.033,0,0,0-4.5-1.267c-6.963-.823-13.779-.25-20.257,2.663-1.308.588-2.509,1.4-2.675,3.056-1.672-.856-1.861-2.225-.451-3.48a14.555,14.555,0,0,1,5.967-2.852,47.406,47.406,0,0,1,18.436-1.5,19.834,19.834,0,0,1,5.162,1.323c2.6,1.065,2.694,2.785.41,4.412C2156.718,1092.016,2156.492,1092.13,2156.159,1092.329Z" transform="translate(-2123.337 -1085.82)"/><path class="a" d="M2151.727,1110.591c-1.2-.848-1.382-1.618-.276-2.229a21.291,21.291,0,0,1,5.17-2.122,33.361,33.361,0,0,1,14.949-.436,2.638,2.638,0,0,1,.941.273c.662.467,1.7.952,1.776,1.521.081.6-.776,1.31-1.4,1.907a1.673,1.673,0,0,0-1.326-1.937,22.834,22.834,0,0,0-4.47-.945,30.668,30.668,0,0,0-12.634,1.593C2153.248,1108.66,2151.99,1109.159,2151.727,1110.591Z" transform="translate(-2142.609 -1100.895)"/><path class="a" d="M2167.166,1122.666c-.521-.544.018-1.045.555-1.276a18.926,18.926,0,0,1,3.7-1.267,14.629,14.629,0,0,1,7.372.157c1.194.379,1.31,1,.65,1.626a10.164,10.164,0,0,0-2.305-1.132,14.464,14.464,0,0,0-7.246.477A17.951,17.951,0,0,0,2167.166,1122.666Z" transform="translate(-2155.269 -1112.262)"/><path class="a" d="M2245.51,1318.6l-.205.024-.014-.122c.034,0,.074-.019.1-.005A.7.7,0,0,1,2245.51,1318.6Z" transform="translate(-2216.354 -1267.246)"/></g></g></svg>