<svg xmlns="http://www.w3.org/2000/svg" width="48.298" height="34.036" viewBox="0 0 48.298 34.036"><defs><style>.a{fill:#f56b6a;}</style></defs><g transform="translate(-2088.79 -1100.599)"><g transform="translate(2088.79 1100.599)"><path class="a" d="M2111.8,1100.6q9.705,0,19.41,0c2.432,0,3.559,1.147,3.558,3.6,0,5-.021,10.01.024,15.014a3.2,3.2,0,0,0,.582,1.751,8.551,8.551,0,0,1-1.758,12.037,8.44,8.44,0,0,1-11.957-2.038,1.778,1.778,0,0,0-1.719-.8q-13.794.022-27.588.008c-2.5,0-3.551-1.056-3.553-3.561q-.011-11.23,0-22.461c0-2.483,1.087-3.544,3.589-3.545Q2102.091,1100.595,2111.8,1100.6Zm21.271,18.337c.041-.555.083-.872.084-1.19q.007-6.711,0-13.422c0-1.737-.341-2.074-2.074-2.074q-19.343-.006-38.685,0c-1.622,0-2.027.409-2.027,2.008q0,11.1.005,22.209c0,1.722.423,2.131,2.18,2.131q13.362.005,26.724,0c.346,0,.692-.055,1.045-.085-.094-1.231-.179-2.354-.276-3.632a8.408,8.408,0,0,1-1.78-.032c-.392-.086-.718-.477-1.073-.732a4.179,4.179,0,0,1,1.132-.795,9.6,9.6,0,0,1,1.575-.052,1.285,1.285,0,0,0,.817-.338c1.312-1.649,2.57-3.34,3.885-4.985a1.115,1.115,0,0,1,.862-.3C2127.99,1117.923,2130.671,1117.136,2133.066,1118.936Zm-11.328,7.024a6.913,6.913,0,0,0,6.733,7.06,6.91,6.91,0,1,0-6.733-7.06Z" transform="translate(-2088.79 -1100.599)"/><path class="a" d="M2110.61,1144.389c0-.9-.033-1.792.009-2.685a2.343,2.343,0,0,1,2.432-2.363c1.668-.033,3.337-.029,5,0a2.426,2.426,0,0,1,2.56,2.523c.051,1.667.052,3.338-.008,5a2.433,2.433,0,0,1-2.59,2.5c-1.627.036-3.256.041-4.883,0a2.39,2.39,0,0,1-2.522-2.538C2110.587,1146.017,2110.609,1145.2,2110.61,1144.389Zm5.844-3.367v6.577c2.4.45,2.8.043,2.473-1.961l-1.441-1.265,1.453-1.326C2119.172,1140.971,2118.952,1140.743,2116.453,1141.022Zm-1.716.012c-2.47-.32-2.894.13-2.5,1.995l1.463,1.29-1.491,1.328c-.134,2.107.208,2.417,2.525,1.946Z" transform="translate(-2105.248 -1129.82)"/><path class="a" d="M2211.285,1121.588a3.9,3.9,0,0,1,5.242-3.706,2.777,2.777,0,0,0,1.645.013,4.041,4.041,0,0,1,4.574,1.341,3.941,3.941,0,0,1-.013,4.664,4.051,4.051,0,0,1-4.6,1.294,2.525,2.525,0,0,0-1.536.012A3.91,3.91,0,0,1,2211.285,1121.588Zm6.144.043a2.274,2.274,0,0,0-2.145-2.354,2.258,2.258,0,1,0-.2,4.51A2.265,2.265,0,0,0,2217.429,1121.631Zm1.423,2.019a2.069,2.069,0,0,0,2.6-.8,2.109,2.109,0,0,0-.092-2.708,2.018,2.018,0,0,0-2.507-.677Z" transform="translate(-2181.238 -1113.473)"/><path class="a" d="M2121.033,1193.07q4.333,0,8.667,0c.642,0,1.466-.124,1.453.826-.011.849-.78.775-1.391.775q-8.728,0-17.455,0c-.2,0-.457.073-.6-.021a9.881,9.881,0,0,1-.977-.815c.343-.252.68-.716,1.029-.724,2.643-.062,5.288-.035,7.933-.035h1.343Z" transform="translate(-2105.347 -1170.385)"/><path class="a" d="M2170.308,1172.2l-1.062-1.127c.354-.277.689-.735,1.068-.775.31-.033.672.433,1.01.678Z" transform="translate(-2149.511 -1153.197)"/><path class="a" d="M2183.239,1168.443l1.017,1.227c-.338.245-.7.713-1.008.68-.382-.041-.719-.5-1.075-.773Z" transform="translate(-2159.266 -1151.801)"/><path class="a" d="M2196.232,1168.47l.958,1.173c-.365.259-.719.7-1.1.721-.318.017-.662-.456-.995-.713Z" transform="translate(-2169.022 -1151.822)"/><path class="a" d="M2209.155,1168.608l1.015,1.088c-.346.279-.7.78-1.036.774s-.7-.5-1.045-.787Z" transform="translate(-2178.826 -1151.926)"/><path class="a" d="M2222.076,1172.193l-.966-1.17c.381-.258.753-.7,1.146-.715.293-.015.612.513.919.8Z" transform="translate(-2188.653 -1153.209)"/><path class="a" d="M2159.4,1171.049c-.716.372-1.106.748-1.394.681-.362-.084-.639-.53-.953-.82.335-.228.66-.616,1.007-.637C2158.38,1170.253,2158.721,1170.631,2159.4,1171.049Z" transform="translate(-2140.311 -1153.182)"/><path class="a" d="M2238.325,1196.9c1.206-1.343,2.344-2.659,3.549-3.912a3.421,3.421,0,0,1,1.173-.506,3.311,3.311,0,0,1-.375,1.14c-1.155,1.365-2.393,2.66-3.552,4.022a.9.9,0,0,1-1.519.1c-.608-.539-1.285-1-1.863-1.57a2.991,2.991,0,0,1-.437-.982,2.681,2.681,0,0,1,1.052.158C2237.027,1195.79,2237.629,1196.34,2238.325,1196.9Z" transform="translate(-2199.363 -1169.942)"/></g></g></svg>