<svg xmlns="http://www.w3.org/2000/svg" xmlns:xlink="http://www.w3.org/1999/xlink" width="584.039" height="896" viewBox="0 0 584.039 896"><defs><style>.a{opacity:0.166;}.b,.f{fill:#efefef;}.b{stroke:#707070;}.c{fill:#d5d5d5;}.d{fill:#f45a59;}.e{fill:#fdfdfd;}.g{fill:#e4e4e4;}.h{fill:#3f3d56;}.i{fill:#fe6347;}.j{fill:#e15b43;}.k{fill:#302f42;}.l{fill:#cfcce0;}.m{fill:#a0616a;}.n{fill:#282642;}.o{fill:#fff;}.p{fill:#f1f1f1;}.q{fill:#f9f9fa;}.r{fill:#fefefe;}.s{fill:#fcfcfc;}.t{fill:#cbcbcb;}.u{fill:#cacaca;}.v{fill:#f6f6f6;}.aa,.w,.y{fill:none;}.w,.y{stroke:#3f3d56;}.w{stroke-linecap:round;stroke-miterlimit:10;stroke-width:14px;}.x{opacity:0.914;fill:url(#a);}.z{stroke:none;}</style><linearGradient id="a" x1="0.5" x2="0.5" y2="1" gradientUnits="objectBoundingBox"><stop offset="0" stop-color="#f45a59"/><stop offset="0.828" stop-color="#f66a69"/><stop offset="1" stop-color="#ffa7a7"/></linearGradient></defs><g transform="translate(52.14 -24)"><g class="a" transform="translate(-2 24)"><g class="b" transform="translate(2)"><rect class="z" width="414" height="896"/><rect class="aa" x="0.5" y="0.5" width="413" height="895"/></g><g transform="translate(519.386 278.179)"><g transform="translate(-360 -199)"><g transform="translate(86.028)"><path class="c" d="M863.579,870.11c-3.731-2.641-3.817-6.86-4.6-10.754a15.345,15.345,0,0,1-.032-2.968q0-84.1-.012-168.194c0-2.131.518-4.36-1.565-6.1-.547-.457-.391-1.868-.4-2.841-.034-5.067-.066-10.134.007-15.2.033-2.327-.633-4.78,1.623-6.741.8-.7.835-2.742-.056-3.353-2.137-1.466-1.547-3.451-1.57-5.325q-.089-7.269,0-14.539c.028-2.087.895-4.063,1.372-5.968,1.062-4.236,1.757-9.058-.536-13.35a6.245,6.245,0,0,1-.859-3.061c0-2.644-.808-5.632.148-7.866,3-7.007.988-14.407,2.413-21.487,2.256-11.208,11.134-17.466,22.069-17.523,35.593-.183,71.188-.121,106.782-.038a21.669,21.669,0,0,1,21.339,21.569q.006,19.5.007,38.992c0,1.49-.378,3.1,1.639,3.843,1.092.4.991,1.607.992,2.6.006,6.168.019,12.337-.015,18.5,0,.742-.043,1.949-.453,2.151-3.067,1.505-2.145,4.24-2.146,6.606q-.042,99.3-.023,198.594c0,12.682-9.248,22.287-21.947,22.325q-52.73.155-105.46-.029a23.9,23.9,0,0,1-11.464-2.576c-.853-.463-1.893-.752-1.97-1.988l.015-.021a31.71,31.71,0,0,0,13.234,3.307c35.043-.015,70.087.074,105.13-.051,12.98-.046,21.285-10.156,21.252-21.645-.2-67.85-.1-135.7-.1-203.55q0-33.54,0-67.079a19.389,19.389,0,0,0-5.594-13.679c-4.35-4.642-9.8-6.538-16-6.542q-51.738-.033-103.477-.011c-14.371,0-23.032,8.645-23.032,23.011q0,133.332-.009,266.664a24.138,24.138,0,0,0,2.48,11.478,5.535,5.535,0,0,1,.83,2.816ZM1010,651.516l.655-.007V630.688l-.655.008ZM858.545,613.175l.657-.016v-11.52l-.657.022Zm.247,17.809-.264.006V651.1l.264-.006Zm-.346,49.35.328,0v-20.2l-.328,0Z" transform="translate(-856.636 -564.724)"/><path class="c" d="M890.426,1823.574a5.8,5.8,0,0,1-5.289-5.286l.023-.016c1.91,1.612,3.979,3.063,5.282,5.281Z" transform="translate(-878.194 -1512.902)"/><path class="d" d="M880.235,879.719c-1.3-2.218-3.372-3.67-5.282-5.281a5.532,5.532,0,0,0-.829-2.817,24.139,24.139,0,0,1-2.48-11.478q.016-133.332.009-266.664c0-14.366,8.661-23.011,23.032-23.011q51.738,0,103.477.012c6.2,0,11.646,1.9,16,6.542a19.39,19.39,0,0,1,5.594,13.679q.007,33.54,0,67.079c0,67.85-.1,135.7.1,203.55.033,11.489-8.271,21.6-21.252,21.645-35.043.125-70.086.036-105.129.051A31.709,31.709,0,0,1,880.235,879.719Zm135.5-276.878c-1.012-1.973-2.87-1.3-4.417-1.3q-65.28-.046-130.56-.024c-5.194,0-5.2,0-5.2,5.323q0,116.292,0,232.584a29.6,29.6,0,0,1-.08,3.629c-.564,4.544-.241,4.968,4.277,4.969q65.611.007,131.221-.011c1.175,0,2.446.351,3.48-.581,2.172-.737,1.278-2.587,1.28-3.945q.074-52.98.038-105.961Q1015.757,670.18,1015.73,602.841Zm-58.06,263.1a12.065,12.065,0,0,0-12.027-12.547,12.265,12.265,0,0,0-.543,24.524A12,12,0,0,0,957.67,865.938ZM945.66,584.992q-4.938,0-9.876,0c-1.406,0-2.912.306-2.971,1.9-.061,1.621,1.419,2.022,2.834,2.025q9.712.019,19.423,0c1.418,0,2.894-.425,2.807-2.048-.085-1.576-1.59-1.876-3-1.875Q950.269,584.995,945.66,584.992Zm-21.886,1.752a3.412,3.412,0,0,0-3.226-3,2.952,2.952,0,0,0-3.22,3.026c-.107,2.019,1.426,3.053,3.1,3.184C922.313,590.106,923.274,588.622,923.774,586.744Zm21.534-8.429a2.5,2.5,0,0,0,2.173-1.995c.214-1.2-.6-1.744-1.7-1.895a1.908,1.908,0,0,0-2.419,1.58C943.126,577.332,944.116,577.882,945.309,578.316Z" transform="translate(-867.987 -569.067)"/><path class="e" d="M1486.2,856.335v-20.82l.655-.008v20.821Z" transform="translate(-1332.832 -769.543)"/><path class="f" d="M864.474,727.793V716.279l.657-.022v11.52Z" transform="translate(-862.565 -679.343)"/><ellipse class="e" cx="0.187" cy="14.218" rx="0.187" ry="14.218" transform="translate(1.838 62.098)"/><ellipse class="e" cx="0.232" cy="14.282" rx="0.232" ry="14.282" transform="translate(1.743 91.228)"/><path class="g" d="M1025.7,943.564c-1.034.933-2.305.581-3.48.581q-65.611.025-131.221.011c-4.517,0-4.84-.425-4.276-4.969a29.626,29.626,0,0,0,.08-3.629q0-116.292,0-232.584c0-5.321,0-5.323,5.2-5.323q65.28,0,130.56.024c1.547,0,3.405-.669,4.417,1.3q-.317-.015-.635-.022l-133.826,0c-5.012,0-5.017,0-5.017,4.817q0,117.414,0,234.827c0,4.23.007,4.233,4.393,4.234l133.825.026Z" transform="translate(-879.236 -665.206)"/><path class="h" d="M1148.543,1744.419a12,12,0,0,1-12.57,11.977,12.265,12.265,0,0,1,.543-24.524A12.065,12.065,0,0,1,1148.543,1744.419Zm-1.4-.284a10.8,10.8,0,1,0-10.63,10.8A10.781,10.781,0,0,0,1147.144,1744.135Z" transform="translate(-1058.86 -1447.549)"/><path class="c" d="M1457.875,947.881q.01-.35.019-.7c.912-.9.633-2.057.633-3.128q.007-120.39-.008-240.779.318.007.635.022.02,67.339.039,134.678.01,52.98-.038,105.961C1459.153,945.294,1460.047,947.144,1457.875,947.881Z" transform="translate(-1311.41 -669.523)"/><path class="g" d="M1135.588,630.093q4.609,0,9.217,0c1.409,0,2.914.3,3,1.875.087,1.623-1.389,2.045-2.807,2.048q-9.712.023-19.422,0c-1.416,0-2.9-.4-2.834-2.025.06-1.592,1.566-1.9,2.971-1.9Q1130.65,630.089,1135.588,630.093Z" transform="translate(-1057.915 -614.168)"/><path class="f" d="M1065.609,627.977c-.5,1.878-1.462,3.362-3.344,3.214-1.676-.131-3.209-1.165-3.1-3.184a2.952,2.952,0,0,1,3.221-3.026A3.412,3.412,0,0,1,1065.609,627.977Z" transform="translate(-1009.822 -610.3)"/><path class="g" d="M1167.878,590.511c-1.192-.434-2.182-.984-1.951-2.309a1.908,1.908,0,0,1,2.419-1.58c1.1.15,1.919.69,1.7,1.894A2.5,2.5,0,0,1,1167.878,590.511Z" transform="translate(-1090.556 -581.263)"/><path class="f" d="M1029.406,703.274q.009,120.389.008,240.779c0,1.07.28,2.228-.633,3.128l-133.825-.025c-4.387,0-4.393,0-4.393-4.234q0-117.413,0-234.827c0-4.814.005-4.817,5.018-4.817Z" transform="translate(-882.297 -669.523)"/><path class="e" d="M1151.981,1748.849a10.8,10.8,0,0,1-21.6.04,10.8,10.8,0,0,1,21.6-.04Z" transform="translate(-1063.698 -1452.263)"/></g><g transform="translate(0 107.245)"><path class="h" d="M901.674,1233.848a.606.606,0,0,1-.068-.1s.005-.014.015-.025a9.34,9.34,0,0,1-.646-2.126,1.262,1.262,0,0,1,.076-.707,45.7,45.7,0,0,1-2.765-6.844c-1.047-3-2.132-5.986-3.2-8.979a28.887,28.887,0,0,1-7.039,1.086,19.706,19.706,0,0,1-19.185-16.93c-.112-.88-.172-1.766-.256-2.649-.851-.059-1.72.054-2.574.023a1.3,1.3,0,0,1-.374.075,12.733,12.733,0,0,1-1.718-.106c-.074.077-.249.031-.381.031q-10.333,0-20.666.007c-.559,0-.871-.115-1.036-.722-.845-3.112-1.737-6.213-2.657-9.473a15.4,15.4,0,0,1-.729-2.319,6.2,6.2,0,0,1-.483-1.96c-.1-1.106-.653-1.378-1.75-1.375q-30.235.057-60.471.031c-.441,0-.883.058-1.324.089l-.231.249a53.923,53.923,0,0,0-2.617,5.41,7.39,7.39,0,0,1-1.993,3.112,1.218,1.218,0,0,1-.178.966l.224-.1c-.986,2.06-1.866,3.894-2.74,5.731a.367.367,0,0,1-.379.224,2.238,2.238,0,0,1-1.3.144c-7.051.008-14.1.038-21.154-.028a1.93,1.93,0,0,0-2.063,1.346c-2.791,5.922-5.65,11.811-8.487,17.711a6.6,6.6,0,0,0-.2,1.179,48.369,48.369,0,0,1-3.076,16.967,4,4,0,0,0-.12.591l.181.266a.177.177,0,0,0,.042.113c.567.005,1.135.015,1.7.015q81.984,0,163.967,0c.525,0,1.049.042,1.574.064l4.163-.142q0-.2.007-.408l-.036-.334C901.7,1233.922,901.69,1233.885,901.674,1233.848ZM837.519,1221q.034.333-.3.3c-.362.023-.725.066-1.087.067q-32.365,0-64.73,0c-.362,0-.725-.043-1.087-.067q-.333.034-.3-.3-.172-8.742,0-17.485c-.023-.22.081-.311.3-.29.362-.022.725-.064,1.088-.064q32.368,0,64.736,0c.363,0,.725.042,1.088.064.215-.022.318.069.3.289Q837.692,1212.259,837.519,1221Z" transform="translate(-674.912 -1137.932)"/><path class="i" d="M749.131,1063.5a2.237,2.237,0,0,1-1.3.144c-7.052.008-14.1.038-21.154-.028a1.929,1.929,0,0,0-2.063,1.346c-2.791,5.922-5.65,11.811-8.487,17.711-.674-1.957-.54-4.033-.891-6.045a61.125,61.125,0,0,0-6.474-17.921,18.064,18.064,0,0,1-1.638-3.086,69.129,69.129,0,0,1,4.274-21.539,101.827,101.827,0,0,1,15.638-28.467c.71-.923,1.061-.828,1.723.022,9.92,12.739,16.972,26.794,19.7,42.825a60.58,60.58,0,0,1,.843,9.662q.005.344.01.688Q749.222,1061.16,749.131,1063.5Z" transform="translate(-657.515 -1004.965)"/><path class="d" d="M565.5,1253.8a73.8,73.8,0,0,1-8.531-14.217,49.333,49.333,0,0,1-4.708-23.055,52.965,52.965,0,0,1,5.671-20.531,66.132,66.132,0,0,1,8.066-12.733,69.937,69.937,0,0,1,9.376,15.025c.119.342.219.693.361,1.025,3.017,7.08,4.788,14.382,4.289,22.161a53.165,53.165,0,0,1-1.174,8.338,89.709,89.709,0,0,1-3.241,9.866,9.44,9.44,0,0,0-1.241,2.423,78.625,78.625,0,0,1-7.492,12.072C566.169,1254.94,565.911,1254.079,565.5,1253.8Z" transform="translate(-540.328 -1139.825)"/><path class="j" d="M647.567,1240.551a89.662,89.662,0,0,0,3.241-9.866,53.167,53.167,0,0,0,1.174-8.337c.5-7.779-1.272-15.081-4.289-22.161-.142-.333-.241-.683-.36-1.025a76.759,76.759,0,0,1,8.01-13.524c1.222-1.6,1.231-1.628,2.391-.054,1.409,1.911,2.777,3.853,4.163,5.782a18.067,18.067,0,0,0,1.638,3.085,61.126,61.126,0,0,1,6.474,17.921c.352,2.011.217,4.088.891,6.045a6.556,6.556,0,0,0-.2,1.179,48.378,48.378,0,0,1-3.076,16.967,4.025,4.025,0,0,0-.12.591c-.224.282.008.254.181.266a.175.175,0,0,0,.042.113.568.568,0,0,0-.21.111c-.2,0-.287.118-.314.3l.058.05a1.754,1.754,0,0,0-.279.368,73,73,0,0,1-9.476,16.583c-.346.279-.668.737-1.134.159l-.249-.334a97.109,97.109,0,0,1-5.5-8.136l-.326-.5Z" transform="translate(-612.292 -1140.702)"/><path class="d" d="M1325.079,1202.646a28.843,28.843,0,0,1-7.039,1.087,19.707,19.707,0,0,1-19.185-16.93c-.112-.88-.172-1.766-.256-2.65.247-9.7,6.447-17.4,15.6-19.373a19.7,19.7,0,0,1,22.367,11.725c.093.222.19.443.285.665.516,1,.031,1.387-.915,1.491a10.855,10.855,0,0,0-3.13.854c-1.135.494-2.184,1.13-2.054,2.641-3.2-.02-6.405-.059-9.608-.045-.68,0-.905-.171-.891-.874.043-2.228.016-4.458.016-6.687,0-2.987,0-2.953-2.963-2.933-.79.005-.929.268-.92.976.036,2.877-.006,5.756.03,8.633.008.686-.182.9-.88.886-2.23-.042-4.462-.016-6.693-.016-2.988,0-2.953,0-2.932,2.965.006.8.279.924.982.915,2.88-.035,5.76.007,8.64-.03.693-.009.9.192.883.883-.041,2.228-.015,4.458-.015,6.687,0,2.984,0,2.948,2.971,2.926.8-.006.92-.289.911-.985-.034-2.837.016-5.675-.033-8.512-.014-.8.225-1.015,1.013-1,2.8.046,5.6-.012,8.4.037.819.015,1.171-.153,1.095-1.047s.006-1.781.018-2.672a2.824,2.824,0,0,0,2.894,1.552,12,12,0,0,0,2.341-.561,7.478,7.478,0,0,1,2.011-.736,20.784,20.784,0,0,1-1.346,8.724,22.027,22.027,0,0,1-4.974,7.374A27.143,27.143,0,0,1,1325.079,1202.646Z" transform="translate(-1104.908 -1125.511)"/><path class="k" d="M1480.439,1498.689l-.448.665a.736.736,0,0,1-.907.409c-.489-.135-.1-.448-.085-.68.035-.57-.382-.5-.735-.54a12.51,12.51,0,0,0-2.869.337c-.146.116-.338.328-.464.06a2.7,2.7,0,0,1-.129-.339,1.165,1.165,0,0,1-.3.342,9.021,9.021,0,0,1-.58,4.188,2.791,2.791,0,0,1-.8,1.031c-.584.648-1.34,1.195-1.341,2.2a1.8,1.8,0,0,0,1.153.249c2.092-.005,4.185-.009,6.277,0a2.764,2.764,0,0,0,1.285-.244c.646-.11.7-.606.665-1.1A62.156,62.156,0,0,0,1480.439,1498.689Z" transform="translate(-1235.901 -1378.292)"/><path class="k" d="M1483.421,1303.82c0-2.269-.013-4.537,0-6.805a41.764,41.764,0,0,1,.449-7,6.9,6.9,0,0,0-.563-4.668c-4.859,1.866-9.74,2.579-14.778.588a16.385,16.385,0,0,0-7.284-1c-.765.057-1.525.177-2.288.268-.452.928-.107,1.953-.352,2.906-.618,4.143.591,8.106,1.173,12.134.469,3.241.876,6.492,1.31,9.738.016.12.08.294.025.355-1.2,1.332.054,2.708-.03,4.071a18.929,18.929,0,0,0,.615,4.3c.764,4.336,1.552,8.667,2.313,13,.091.518.257,1.084-.237,1.525.071.4.15.808.254,1.205a2.818,2.818,0,0,1,.178.607.283.283,0,0,0,.029.134c.021-.326.352-.323,1.23-.314a11.84,11.84,0,0,0,3.929-.811c.539-.569,1.3-1.062.435-1.98-.176-.186-.105-.622-.117-.945-.16-4.333-.263-8.668-.5-13-.1-1.811.138-3.611.072-5.426a24.508,24.508,0,0,1,.671-3.975c.656-4.316,1.3-8.633,1.992-13.2.568,2.351,1.043,4.482,1.6,6.589a10.575,10.575,0,0,0,1.979,4.624,3.532,3.532,0,0,1,.592,2.312c.3,6.881.574,13.763.864,20.645a6.516,6.516,0,0,1-.193,2.277c-.335,1.075-.187,2.014,1.116,2.36,1.278.37,2.531.952,3.909.454a2.4,2.4,0,0,0,.7-1.869q.68-11.762,1.342-23.524a13.087,13.087,0,0,0-.11-3.458A9.842,9.842,0,0,1,1483.421,1303.82Z" transform="translate(-1225.809 -1216.687)"/><path class="l" d="M1445.841,1124.035c-.339-.037-.812.161-.936-.324-.414-1.622-1.515-2.973-1.937-4.544a6.913,6.913,0,0,1,1.748-6.705,43.964,43.964,0,0,1,5.315-5.461c2.419,1.691,3.673,1.683,5.452-.054a12.462,12.462,0,0,0,2.386-3.607c3.3.4,6.635.392,9.828,1.624a5.277,5.277,0,0,1,3.389,3.794c.62,2.32,1,4.708,1.419,7.077.185,1.042-.694.548-1.137.67a65.713,65.713,0,0,1-7.031-.215c-.41-.039-.916-.2-1.093.43a12.122,12.122,0,0,0-.462,6.216c.3,1.175.052,1.582-.943,1.882a4.958,4.958,0,0,0-.653.319c-3.76,1.785-7.528,3.553-11.275,5.364-.819.4-1.1.281-.915-.64a5.892,5.892,0,0,0-.19-3.178c-.283-.819.25-1.945-.329-2.583C1447.8,1123.351,1446.735,1124.238,1445.841,1124.035Z" transform="translate(-1213.915 -1079.375)"/><path class="l" d="M1484.937,1231.263c-4.859,1.866-9.739,2.579-14.778.588a16.38,16.38,0,0,0-7.284-1c-.765.056-1.525.177-2.288.268q.364-2.53.729-5.059c.278-1.337.545-2.677.842-4.011a1.5,1.5,0,0,0-.141-1.354c-.926-1.35-.447-2.42,1.15-2.7,2.421-.427,4.856-.78,7.266-1.261,3.95-.789,7.931-1.495,11.574-3.353.082,2.381.147,4.763.254,7.144.047,1.044.835,1.824,1.1,2.805a5.371,5.371,0,0,1,.2,2.361,8.032,8.032,0,0,0,.786,3.743A7.989,7.989,0,0,1,1484.937,1231.263Z" transform="translate(-1227.434 -1162.605)"/><path class="h" d="M1189.9,1452.473h-15.046q-.025-.217-.05-.434c.266-.366.125-.783.126-1.172.011-5.74,0-11.481.011-17.222,0-2.3.043-4.6.067-6.9l.3-.3c4.7-.121,9.393-.107,14.089-.007l.225.285c.012.564.035,1.129.036,1.693q.022,11.686.039,23.37c-.022.164.05.225.208.193l-.017.083C1189.891,1452.2,1189.9,1452.334,1189.9,1452.473Zm-9.935-20.182c2.02-.031,1.795.281,1.8-1.386,0-2.249.241-1.937-1.349-1.951-2.193-.019-2.193-.006-2.194,1.445C1178.218,1432.291,1178.218,1432.291,1179.965,1432.291Zm4.761-3.341c-2,.031-1.772-.281-1.788,1.4-.018,1.942-.005,1.942,1.362,1.943,2.183,0,2.183,0,2.183-1.457C1186.484,1428.949,1186.484,1428.949,1184.726,1428.949Zm.008,7.956c1.749,0,1.749,0,1.75-1.415,0-2,0-2-1.406-2-2.143,0-2.143,0-2.143,1.655C1182.934,1436.906,1182.934,1436.906,1184.734,1436.906Zm-4.748-3.413c-.8.08-1.966-.493-1.809,1.322.179,2.078.04,2.09,1.474,2.09,2.117,0,2.117,0,2.117-1.44C1181.768,1433.493,1181.768,1433.493,1179.986,1433.493Zm8.707,7.518c-.117-.449-.348-.871-.924-.89a.9.9,0,0,0-1.017.95.878.878,0,0,0,.888.953C1188.263,1442.064,1188.582,1441.671,1188.693,1441.011Z" transform="translate(-1011.269 -1323.702)"/><path class="m" d="M1459.291,1170.2c-3.643,1.858-7.624,2.564-11.573,3.353-2.409.482-4.845.835-7.266,1.261-1.6.282-2.077,1.352-1.15,2.7a1.5,1.5,0,0,1,.141,1.354c-.3,1.333-.564,2.673-.842,4.01a13.142,13.142,0,0,0-1.42,7.963,6.5,6.5,0,0,1-1.346,3.941,3.189,3.189,0,0,1-3.332.866c-1.109-.505-1.037-1.525-1.008-2.509.006-.2.011-.4.016-.606a22.025,22.025,0,0,0,4.974-7.374,20.784,20.784,0,0,0,1.347-8.724,7.466,7.466,0,0,0-2.011.736,12.028,12.028,0,0,1-2.341.561,2.824,2.824,0,0,1-2.894-1.552l-.02-.106c-.13-1.511.918-2.147,2.054-2.641a10.84,10.84,0,0,1,3.13-.854c.947-.1,1.431-.492.915-1.492.579-1.481.138-2.991.117-4.488-.012-.838-.09-1.674-.139-2.511.895.2,1.958-.684,2.637.064.579.638.046,1.764.329,2.583a5.9,5.9,0,0,1,.19,3.178c-.184.921.1,1.036.914.64,3.747-1.811,7.515-3.58,11.275-5.365a4.991,4.991,0,0,1,.653-.319c1-.3,1.239-.707.943-1.881a12.121,12.121,0,0,1,.462-6.215c.177-.633.683-.469,1.093-.43a65.684,65.684,0,0,0,7.031.215,58.123,58.123,0,0,1-1.961,12.254A2.494,2.494,0,0,1,1459.291,1170.2Z" transform="translate(-1204.718 -1119.434)"/><path class="m" d="M1465.193,1073.931a12.462,12.462,0,0,1-2.385,3.607c-1.779,1.738-3.033,1.745-5.453.054-.048-.319-.113-.636-.143-.957a3.915,3.915,0,0,0-2.238-3.579,5.113,5.113,0,0,1-2.578-4.168,5.343,5.343,0,0,0,1.473-2.719c.234-.854,1.068-1.808,1.5-1.7a10.822,10.822,0,0,0,2.31.159l-.133.573a.349.349,0,0,0-.082.047c-.012.011-.005.041-.007.063l.08-.117c.16.006.32.011.48.02,1.138.067,2.228-1.631,3.465,0,.293.386,1.893,1.019,2.16,1.4.46.657.682,1.48,1.376,1.972a7.841,7.841,0,0,1-.928,2.589.8.8,0,0,0,.064.99Q1464.678,1073.047,1465.193,1073.931Z" transform="translate(-1221.238 -1049.967)"/><path class="k" d="M1462.728,1046.694c-.694-.492-.917-1.315-1.376-1.972-.267-.383-1.868-1.016-2.16-1.4-1.236-1.632-2.327.065-3.465,0-.16-.009-.32-.014-.48-.02l.009.008.133-.573a10.822,10.822,0,0,1-2.31-.159c-.437-.107-1.271.847-1.5,1.7a5.341,5.341,0,0,1-1.473,2.719,6.347,6.347,0,0,1,.76-7.068c.33-.338.77-.5-.064-.818-.508-.193.033-.516.223-.671a6.8,6.8,0,0,1,4.624-1.756c.114-.447-.482-.56-.384-1.058a3.635,3.635,0,0,1,3.562,1.119,19.652,19.652,0,0,1,2.849,3.606c.378.6.6,1.416,1.944.772-1.232,1.6.223,1.7.905,2.48-1.41-.547-1.734-.1-1.59,1.054A9,9,0,0,1,1462.728,1046.694Z" transform="translate(-1218.943 -1028.073)"/><path class="k" d="M1536.137,1498.841c.637.276.764.888.9,1.456.419,1.745.766,3.5,2.3,4.721a1.45,1.45,0,0,1,.6,1.368,2.029,2.029,0,0,1-1.278.24q-3.259,0-6.518,0a3.217,3.217,0,0,1-1.647-.239c-.573-.1-.686-.48-.6-.977.363-2.13.694-4.266,1.112-6.385.144-.728.3.137.482.063a.97.97,0,0,0,1.115.691c.628-.15-.01-.583.112-.882.142-.347.426-.309.694-.332A11.82,11.82,0,0,1,1536.137,1498.841Z" transform="translate(-1279.841 -1378.308)"/><path class="n" d="M807.545,1531.613q.025.217.05.434c-.323.011-.647.031-.971.031q-58.193,0-116.386,0c-.324,0-.647-.02-.971-.031v-.467l9.486-.024,6.809,0c2.06.015,4.121.046,6.181.044q11.034-.013,22.068-.044l11.18,0c.282.014.565.04.848.04q25.811,0,51.622,0c.282,0,.564-.029.847-.044Z" transform="translate(-644.01 -1403.277)"/><path class="n" d="M1236.731,1532.048q-.007-.208-.014-.415,19.484-.016,38.969-.034c1.7,0,3.4-.027,5.1-.042l13.137.024.23.467c-3.041.011-6.081.03-9.123.031q-23.479,0-46.959,0C1237.622,1532.078,1237.176,1532.058,1236.731,1532.048Z" transform="translate(-1058.1 -1403.277)"/><path class="h" d="M684.694,1487.982v.467h-1.469l0-.485q.021-6.8.042-13.6l.25-.292c.467.579.788.121,1.134-.159Q684.671,1480.949,684.694,1487.982Z" transform="translate(-639.439 -1359.677)"/><path class="h" d="M606.457,1472.813c.415.284.674,1.145,1.376.373.016,4.283.027,8.566.058,12.848,0,.38-.18.805.157,1.147l-.049.432h-1.611l-.042-.438a14.42,14.42,0,0,0,.113-3.357C606.481,1480.15,606.461,1476.481,606.457,1472.813Z" transform="translate(-581.29 -1358.843)"/><path class="n" d="M528.547,1531.77l.042.438h-25.1l0-.438Z" transform="translate(-503.491 -1403.438)"/><path class="m" d="M1541.164,1490.791a11.819,11.819,0,0,0-2.726-.277c-.268.024-.552-.015-.694.332-.122.3.516.732-.112.882a.97.97,0,0,1-1.115-.691,24.064,24.064,0,0,0,.46-3.133c1.277.369,2.53.952,3.909.454A9.105,9.105,0,0,1,1541.164,1490.791Z" transform="translate(-1284.867 -1370.258)"/><path class="n" d="M613.131,1532.065l.049-.432,17.025-.052,0,.485Z" transform="translate(-586.422 -1403.295)"/><path class="n" d="M1570.755,1531.658h16.53v.466h-16.758Z" transform="translate(-1310.591 -1403.353)"/><path class="h" d="M1541.949,1530.951l-.229.466h-9.22l-.045-.446-.013-.247a3.216,3.216,0,0,0,1.647.239q3.259,0,6.518,0a2.03,2.03,0,0,0,1.278-.24C1541.908,1530.8,1541.929,1530.875,1541.949,1530.951Z" transform="translate(-1281.785 -1402.647)"/><path class="h" d="M1471.761,1531.391l-.23-.467.061-.236a1.8,1.8,0,0,0,1.153.25c2.092-.005,4.185-.009,6.277,0a2.762,2.762,0,0,0,1.285-.244q-.006.124-.013.247l-.045.446Z" transform="translate(-1235.712 -1402.62)"/><path class="n" d="M1507.32,1532.184l.045-.446h6.089l.044.446Z" transform="translate(-1262.782 -1403.414)"/><path class="k" d="M911.344,1181.248l-.231.249C911.115,1181.343,911.161,1181.232,911.344,1181.248Z" transform="translate(-811.815 -1138.303)"/><path class="o" d="M896.032,1433.9c-1.7.014-3.4.04-5.1.042q-19.485.021-38.969.034l.017-.083-.208-.193q-.019-11.685-.039-23.37c0-.564-.023-1.129-.036-1.693.009-.161,0-.311-.225-.285-4.7-.1-9.393-.114-14.089.007q-.334-.035-.3.3c-.024,2.3-.063,4.6-.067,6.9-.01,5.741,0,11.481-.011,17.222,0,.39.14.807-.126,1.172l-9.238-.051q0-1.448-.006-2.9,0-.234,0-.468V1408.65c0-.324.013-.648.01-.971-.025-2.231.265-1.965-1.911-1.966q-24.855-.01-49.71,0c-.365,0-.729,0-1.094.008-.321,0-.6.12-.573.473.055.825-.28,1.688.221,2.472v.443a1.455,1.455,0,0,0,0,1.745v.443a1.454,1.454,0,0,0,0,1.745c0,.148,0,.3,0,.443a1.454,1.454,0,0,0,0,1.745q0,.222,0,.444a1.454,1.454,0,0,0,0,1.745v.444a1.454,1.454,0,0,0,0,1.745q0,.222,0,.444a1.454,1.454,0,0,0,0,1.745q0,.222,0,.444a1.454,1.454,0,0,0,0,1.745v.444a1.454,1.454,0,0,0,0,1.745v.443a1.454,1.454,0,0,0,0,1.745q0,.222,0,.444a1.455,1.455,0,0,0,0,1.745v.443c-.518.934-.112,1.948-.254,2.914l-11.18,0,0-2.908v-22.332c.017-2.332.168-1.97-1.894-1.974q-12.226-.02-24.453,0c-2.061,0-1.911-.359-1.894,1.974v22.332q0,1.454,0,2.908l-6.809,0c0-4.524-.045-9.049.016-13.572.078-5.807-.276-11.619.208-17.42l-.058-.05.314-.3a.566.566,0,0,1,.21-.111c.567.005,1.135.015,1.7.015q81.984,0,163.967,0c.525,0,1.05.042,1.574.064Q896.029,1418.212,896.032,1433.9Zm-28.277-23.783a55.381,55.381,0,0,0-.007,6.052c-.027.229.123.233.284.225l6.586,0q.244.038.207-.207,0-3.047,0-6.094c.008-.161,0-.313-.226-.285a64.7,64.7,0,0,0-6.543.007Q867.719,1409.78,867.755,1410.114Zm16.334-.3a64.6,64.6,0,0,0-6.543-.007c-.229-.027-.233.124-.225.284l0,6.094q-.038.244.207.207l6.585,0c.161.008.313,0,.285-.226a55.449,55.449,0,0,0-.007-6.052Q884.423,1409.778,884.089,1409.815Zm.023,9.072-6.586,0q-.244-.038-.208.207,0,3.168,0,6.337c-.008.161,0,.313.226.285a64.742,64.742,0,0,0,6.543-.007q.334.035.3-.3a60.053,60.053,0,0,0,.008-6.295C884.423,1418.882,884.272,1418.878,884.112,1418.886Zm-9.493,0-6.585,0c-.161-.008-.313,0-.285.226a60.024,60.024,0,0,0,.007,6.3q-.035.334.3.3a64.7,64.7,0,0,0,6.543.008c.229.027.233-.124.225-.284l0-6.337Q874.863,1418.847,874.619,1418.884Z" transform="translate(-673.35 -1305.616)"/><path class="p" d="M893.918,1272.795c.362-.022.725-.064,1.088-.064q32.368,0,64.736,0c.363,0,.725.042,1.088.064l.3.289q.173,8.742,0,17.485l-.3.3c-.362.023-.725.066-1.087.066q-32.365,0-64.73,0c-.362,0-.725-.043-1.087-.066l-.3-.3q-.172-8.742,0-17.485Zm11.4,2.216c.017-.159-.02-.269-.214-.239h-5.109c-.2-.032-.225.084-.211.238q0,2.318,0,4.637c-.02.156.027.25.206.221h5.119c.177.028.232-.059.211-.22Q905.319,1277.328,905.318,1275.01Zm2.221-.239c-.194-.031-.231.079-.214.238v4.635c-.022.161.034.249.21.22h5.119c.179.03.226-.064.207-.22v-4.636c.015-.155-.015-.271-.211-.239Zm47.215,0h-5.11c-.194-.031-.231.079-.214.238v4.635c-.022.161.034.249.21.22h5.119c.179.03.226-.064.207-.22v-4.636C954.98,1274.855,954.951,1274.739,954.754,1274.771Zm-33.8,4.875c-.02.156.027.25.206.221h5.119c.177.028.232-.059.211-.22q0-2.318,0-4.635c.017-.159-.02-.269-.215-.239h-5.109c-.2-.032-.225.084-.211.238Q920.958,1277.327,920.958,1279.645Zm26.256.22c.177.028.232-.059.211-.22v-4.635c.017-.159-.021-.269-.215-.239H942.1c-.2-.032-.225.084-.211.238q0,2.318,0,4.637c-.02.156.027.25.207.221Zm-18.505,0h5.119c.179.03.226-.064.207-.22v-4.636c.015-.155-.015-.271-.211-.239h-5.109c-.194-.031-.231.079-.214.238v4.635C928.477,1279.806,928.532,1279.893,928.709,1279.865Zm20.721,7.076c-.017.159.02.269.214.239h5.109c.2.032.225-.083.211-.238v-4.88c.024-.159-.042-.226-.2-.2h-5.127c-.157-.024-.232.037-.206.2Zm-2.211-5.079h-5.128c-.159-.026-.226.042-.2.2v4.88c-.015.155.015.27.211.239h5.11c.194.031.231-.079.214-.238v-4.879C947.451,1281.9,947.376,1281.839,947.219,1281.862Zm-18.72,5.079c-.017.159.02.269.214.239h5.11c.2.032.225-.083.211-.238v-4.88c.024-.159-.042-.226-.2-.2h-5.127c-.157-.024-.232.037-.206.2Zm-7.541,0c-.015.155.015.27.211.239h5.11c.194.031.231-.079.214-.238v-4.879c.026-.164-.048-.224-.205-.2H921.16c-.159-.026-.226.042-.2.2Q920.958,1284.5,920.958,1286.941Zm-13.427-5.079c-.157-.024-.232.037-.206.2v4.878c-.017.159.02.269.214.239h5.109c.2.032.225-.083.211-.238q0-2.44,0-4.88c.024-.159-.042-.226-.2-.2Zm-2.417,0h-5.128c-.159-.026-.226.042-.2.2v4.88c-.015.155.015.27.211.239h5.11c.194.031.231-.079.214-.238v-4.879C905.345,1281.9,905.271,1281.839,905.114,1281.862Z" transform="translate(-798.52 -1207.5)"/><path class="q" d="M879.574,1226.779q.091-2.344.182-4.688l2.936-1.267c-.986,2.06-1.866,3.894-2.74,5.731A.368.368,0,0,1,879.574,1226.779Z" transform="translate(-787.958 -1168.24)"/><path class="k" d="M730.014,1401.153c-.173-.012-.406.016-.181-.266Z" transform="translate(-674.625 -1304.438)"/><path class="k" d="M1434.67,1400.523c.2.14.374.279-.008.408Q1434.666,1400.727,1434.67,1400.523Z" transform="translate(-1207.825 -1304.163)"/><path class="k" d="M1434.135,1397.977a.248.248,0,0,1,.043.228,1.063,1.063,0,0,1-.109-.151C1434.063,1398.043,1434.111,1398,1434.135,1397.977Z" transform="translate(-1207.375 -1302.238)"/><path class="r" d="M1432.856,1392.5c-.008-.1-.055-.251-.016-.276.124-.082.16.037.183.138A.889.889,0,0,1,1432.856,1392.5Z" transform="translate(-1206.435 -1297.862)"/><path class="s" d="M1169.767,1346.262l.3-.3C1170.089,1346.184,1169.989,1346.283,1169.767,1346.262Z" transform="translate(-1007.459 -1262.894)"/><path class="s" d="M1170.073,1273.28l-.3-.289C1169.991,1272.969,1170.094,1273.06,1170.073,1273.28Z" transform="translate(-1007.466 -1207.696)"/><path class="s" d="M894.177,1272.992l-.3.29C893.858,1273.062,893.962,1272.97,894.177,1272.992Z" transform="translate(-798.778 -1207.697)"/><path class="s" d="M893.881,1345.967l.3.3Q893.849,1346.3,893.881,1345.967Z" transform="translate(-798.778 -1262.897)"/><path class="n" d="M683.393,1473.821q0-.313,0-.627l.248.335Z" transform="translate(-639.568 -1359.131)"/><path class="r" d="M729.2,1402.9l-.313.3C728.915,1403.018,729,1402.9,729.2,1402.9Z" transform="translate(-673.98 -1305.961)"/><path class="r" d="M1353.459,1204.761l.02.106c-.012.89-.094,1.787-.018,2.671s-.275,1.062-1.095,1.047c-2.8-.049-5.6.01-8.4-.037-.789-.013-1.027.2-1.013,1,.049,2.837,0,5.675.033,8.511.008.7-.109.979-.911.985-2.971.022-2.971.058-2.971-2.926,0-2.229-.026-4.459.015-6.687.013-.692-.19-.892-.883-.883-2.88.036-5.76,0-8.64.03-.7.008-.976-.12-.981-.915-.021-2.965-.056-2.965,2.932-2.965,2.231,0,4.463-.027,6.693.016.7.014.888-.2.879-.886-.036-2.878.006-5.756-.03-8.633-.009-.709.13-.971.92-.976,2.963-.02,2.963-.054,2.963,2.933,0,2.229.027,4.459-.016,6.687-.014.7.212.878.891.874C1347.054,1204.7,1350.256,1204.741,1353.459,1204.761Z" transform="translate(-1127.611 -1148.115)"/><path class="m" d="M1490.554,1486.759q.25,1.848.5,3.7a.736.736,0,0,1-.907.409c-.489-.135-.1-.448-.086-.68.035-.57-.382-.5-.735-.54a12.54,12.54,0,0,0-2.869.336,11.5,11.5,0,0,1,.167-2.41A11.837,11.837,0,0,0,1490.554,1486.759Z" transform="translate(-1246.963 -1369.392)"/><path class="p" d="M1457.775,1273.394l-.339,0a13.141,13.141,0,0,1,1.42-7.963q-.364,2.53-.729,5.059C1457.675,1271.417,1458.02,1272.441,1457.775,1273.394Z" transform="translate(-1224.974 -1201.979)"/><path class="p" d="M1483.479,1490.082a11.468,11.468,0,0,0-.167,2.41c-.146.117-.337.329-.464.06a8.881,8.881,0,0,1-.351-1.132C1482.071,1490.069,1482.069,1490.069,1483.479,1490.082Z" transform="translate(-1243.818 -1371.904)"/><path class="p" d="M1190.567,1440.337c-1.747,0-1.747,0-1.747-1.893,0-1.45,0-1.464,2.194-1.445,1.59.014,1.349-.3,1.349,1.951C1192.361,1440.617,1192.587,1440.306,1190.567,1440.337Z" transform="translate(-1021.87 -1331.748)"/><path class="p" d="M1209.974,1436.99c1.758,0,1.758,0,1.757,1.885,0,1.458,0,1.458-2.183,1.457-1.368,0-1.38,0-1.362-1.943C1208.2,1436.708,1207.972,1437.021,1209.974,1436.99Z" transform="translate(-1036.517 -1331.743)"/><path class="p" d="M1209.979,1459.07c-1.8,0-1.8,0-1.8-1.758,0-1.656,0-1.656,2.143-1.655,1.407,0,1.407,0,1.406,2C1211.729,1459.07,1211.729,1459.07,1209.979,1459.07Z" transform="translate(-1036.514 -1345.866)"/><path class="p" d="M1190.413,1455.578c1.782,0,1.782,0,1.782,1.973,0,1.441,0,1.441-2.117,1.44-1.434,0-1.295-.012-1.474-2.091C1188.448,1455.085,1189.618,1455.658,1190.413,1455.578Z" transform="translate(-1021.696 -1345.787)"/><path class="p" d="M1225.791,1483.753c-.111.66-.43,1.054-1.052,1.013a.877.877,0,0,1-.888-.953.9.9,0,0,1,1.017-.95C1225.442,1482.882,1225.674,1483.3,1225.791,1483.753Z" transform="translate(-1048.367 -1366.444)"/><path class="k" d="M1234.7,1426.671c.229-.027.233.124.225.285Z" transform="translate(-1056.576 -1323.939)"/><path class="k" d="M1175.63,1427q-.036-.334.3-.3Z" transform="translate(-1011.892 -1323.96)"/><path class="r" d="M1235.919,1530.735l.208.193C1235.969,1530.96,1235.9,1530.9,1235.919,1530.735Z" transform="translate(-1057.493 -1402.655)"/><path class="k" d="M1473.27,1067.463l-.08.117c0-.021,0-.051.007-.062a.348.348,0,0,1,.082-.047Z" transform="translate(-1236.967 -1052.238)"/><path class="t" d="M971.269,1519.646l.006,2.9c-.282.015-.564.044-.847.044q-25.811,0-51.622,0c-.283,0-.565-.026-.847-.04.142-.966-.264-1.98.254-2.913Z" transform="translate(-816.978 -1394.258)"/><path class="t" d="M756.159,1522.546q0-1.454,0-2.908H784.4l0,2.908q-11.034.023-22.068.044C760.28,1522.592,758.219,1522.561,756.159,1522.546Z" transform="translate(-694.608 -1394.261)"/><path class="t" d="M918.188,1418.781c-.5-.784-.166-1.647-.221-2.472-.024-.353.253-.471.573-.474.365,0,.729-.008,1.094-.008q24.855,0,49.71,0c2.175,0,1.885-.266,1.91,1.966,0,.324-.006.647-.01.971Z" transform="translate(-816.954 -1315.735)"/><path class="u" d="M918.156,1440.518a1.453,1.453,0,0,1,0-1.745l53.056.013v1.719Z" transform="translate(-816.922 -1333.095)"/><path class="u" d="M918.156,1449.5a1.454,1.454,0,0,1,0-1.745l53.056.013v1.719Z" transform="translate(-816.922 -1339.891)"/><path class="u" d="M918.156,1458.487a1.454,1.454,0,0,1,0-1.745l53.056.013v1.719Z" transform="translate(-816.922 -1346.687)"/><path class="u" d="M918.156,1467.472a1.453,1.453,0,0,1,0-1.745l53.056.012v1.719Z" transform="translate(-816.922 -1353.484)"/><path class="u" d="M918.156,1476.457a1.454,1.454,0,0,1,0-1.745l53.056.012v1.72Z" transform="translate(-816.922 -1360.28)"/><path class="u" d="M971.212,1483.71v1.719l-53.056.013a1.454,1.454,0,0,1,0-1.745Z" transform="translate(-816.922 -1367.076)"/><path class="u" d="M918.156,1503.412a1.454,1.454,0,0,1,0-1.745l53.056.013v1.719Z" transform="translate(-816.922 -1380.668)"/><path class="u" d="M918.156,1512.4a1.453,1.453,0,0,1,0-1.745l53.056.012v1.719Z" transform="translate(-816.922 -1387.464)"/><path class="u" d="M971.212,1429.8v1.719l-53.056.013a1.454,1.454,0,0,1,0-1.745Z" transform="translate(-816.922 -1326.299)"/><path class="u" d="M918.156,1494.427a1.454,1.454,0,0,1,0-1.745l53.056.013v1.72Z" transform="translate(-816.922 -1373.872)"/><path class="t" d="M756.149,1421.779c-.017-2.333-.167-1.97,1.894-1.974q12.226-.02,24.453,0c2.062,0,1.911-.359,1.894,1.974Z" transform="translate(-694.594 -1318.734)"/><path class="u" d="M756.176,1485.444V1483.7h28.241v1.743Z" transform="translate(-694.621 -1367.079)"/><path class="u" d="M784.417,1429.792v1.742H756.176v-1.743Z" transform="translate(-694.621 -1326.302)"/><path class="u" d="M756.176,1440.52v-1.743h28.241v1.743Z" transform="translate(-694.621 -1333.098)"/><path class="u" d="M784.417,1474.717v1.743H756.176v-1.742Z" transform="translate(-694.621 -1360.283)"/><path class="u" d="M756.176,1449.5v-1.743h28.241v1.742Z" transform="translate(-694.621 -1339.895)"/><path class="u" d="M756.176,1494.429v-1.742h28.241v1.743Z" transform="translate(-694.621 -1373.875)"/><path class="u" d="M784.417,1456.747v1.743H756.176v-1.743Z" transform="translate(-694.621 -1346.691)"/><path class="u" d="M756.176,1503.414v-1.742h28.241v1.743Z" transform="translate(-694.621 -1380.671)"/><path class="u" d="M756.176,1467.475v-1.742h28.241v1.742Z" transform="translate(-694.621 -1353.487)"/><path class="u" d="M784.417,1510.656v1.742H756.176v-1.743Z" transform="translate(-694.621 -1387.467)"/><path class="h" d="M1301.259,1476.453a59.991,59.991,0,0,1-.007-6.3l.285-.226,6.585,0,.207.207,0,6.337-.225.284a64.74,64.74,0,0,1-6.543-.008Z" transform="translate(-1106.854 -1356.662)"/><path class="h" d="M1340.787,1476.474q0-3.169,0-6.337l.208-.207,6.586,0,.284.224a59.987,59.987,0,0,1-.008,6.295l-.3.3a64.747,64.747,0,0,1-6.544.007Z" transform="translate(-1136.816 -1356.662)"/><path class="h" d="M1340.784,1438.8l0-6.094.225-.284a64.668,64.668,0,0,1,6.543.008l.3.3a55.449,55.449,0,0,1,.007,6.052l-.285.226-6.585,0Z" transform="translate(-1136.816 -1328.233)"/><path class="h" d="M1308.122,1439.009l-6.585,0-.284-.225a55.44,55.44,0,0,1,.007-6.051l.3-.3a64.706,64.706,0,0,1,6.543-.007l.226.285q0,3.047,0,6.094Z" transform="translate(-1106.854 -1328.233)"/><path class="v" d="M972.115,1509.246l-53.056-.012c0-.148,0-.3,0-.444l53.056-.013Z" transform="translate(-817.824 -1386.046)"/><path class="v" d="M919.059,1517.775l53.056-.013q0,.235,0,.469l-53.056-.012Z" transform="translate(-817.825 -1392.842)"/><path class="v" d="M919.059,1499.806l53.056-.013v.469l-53.056-.013Z" transform="translate(-817.825 -1379.251)"/><path class="v" d="M972.115,1473.307l-53.056-.013c0-.148,0-.3,0-.444l53.056-.013Z" transform="translate(-817.824 -1358.862)"/><path class="v" d="M972.115,1464.322l-53.056-.013v-.444l53.056-.013Z" transform="translate(-817.825 -1352.066)"/><path class="v" d="M972.115,1455.337l-53.056-.013c0-.148,0-.3,0-.444l53.056-.013Z" transform="translate(-817.824 -1345.27)"/><path class="v" d="M972.115,1491.277l-53.056-.012v-.444l53.056-.012Z" transform="translate(-817.825 -1372.454)"/><path class="v" d="M972.115,1446.353l-53.056-.013c0-.148,0-.3,0-.444l53.056-.013Z" transform="translate(-817.824 -1338.474)"/><path class="v" d="M972.115,1428.385l-53.056-.013v-.443l53.056-.012Q972.115,1428.151,972.115,1428.385Z" transform="translate(-817.825 -1324.884)"/><path class="v" d="M919.059,1436.912l53.056-.013v.469l-53.056-.013Z" transform="translate(-817.825 -1331.678)"/><path class="v" d="M972.115,1482.292l-53.056-.013c0-.148,0-.3,0-.444l53.056-.013Z" transform="translate(-817.824 -1365.658)"/><path class="v" d="M784.417,1437.391H756.176v-.447h28.241Z" transform="translate(-694.621 -1331.713)"/><path class="v" d="M756.176,1481.87h28.241v.446H756.176Z" transform="translate(-694.621 -1365.693)"/><path class="v" d="M784.417,1491.3H756.176v-.446h28.241Z" transform="translate(-694.621 -1372.49)"/><path class="v" d="M784.417,1428.409H756.176v-.446h28.241Z" transform="translate(-694.621 -1324.919)"/><path class="v" d="M784.417,1500.285H756.176v-.447h28.241Z" transform="translate(-694.621 -1379.285)"/><path class="v" d="M756.176,1472.885h28.241v.446H756.176Z" transform="translate(-694.621 -1358.898)"/><path class="v" d="M784.417,1509.27H756.176v-.447h28.241Z" transform="translate(-694.621 -1386.082)"/><path class="v" d="M784.417,1446.376H756.176v-.447h28.241Z" transform="translate(-694.621 -1338.509)"/><path class="v" d="M756.176,1517.809h28.241v.446H756.176Z" transform="translate(-694.621 -1392.878)"/><path class="v" d="M784.417,1464.346H756.176v-.447h28.241Z" transform="translate(-694.621 -1352.101)"/><path class="v" d="M784.417,1455.361H756.176v-.447h28.241Z" transform="translate(-694.621 -1345.305)"/><path class="k" d="M1368.877,1432.987l-.3-.3Q1368.912,1432.652,1368.877,1432.987Z" transform="translate(-1157.838 -1328.49)"/><path class="k" d="M1341.012,1432.659l-.225.284C1340.779,1432.783,1340.784,1432.632,1341.012,1432.659Z" transform="translate(-1136.817 -1328.469)"/><path class="k" d="M1329.837,1432.945l-.226-.285C1329.841,1432.632,1329.845,1432.783,1329.837,1432.945Z" transform="translate(-1128.364 -1328.469)"/><path class="k" d="M1301.814,1432.689l-.3.3Q1301.479,1432.654,1301.814,1432.689Z" transform="translate(-1107.11 -1328.491)"/><path class="k" d="M1301.487,1458.77l.284.225C1301.611,1459,1301.46,1459,1301.487,1458.77Z" transform="translate(-1107.089 -1348.221)"/><path class="k" d="M1329.7,1459.062l.207-.207Q1329.942,1459.1,1329.7,1459.062Z" transform="translate(-1128.43 -1348.285)"/><path class="k" d="M1340.768,1458.852l.207.207Q1340.731,1459.1,1340.768,1458.852Z" transform="translate(-1136.8 -1348.283)"/><path class="k" d="M1368.666,1458.992l.285-.226C1368.979,1459,1368.827,1459,1368.666,1458.992Z" transform="translate(-1157.905 -1348.218)"/><path class="k" d="M1301.772,1469.934l-.285.226C1301.459,1469.929,1301.611,1469.925,1301.772,1469.934Z" transform="translate(-1107.089 -1356.663)"/><path class="k" d="M1329.907,1470.122l-.207-.207Q1329.944,1469.878,1329.907,1470.122Z" transform="translate(-1128.432 -1356.647)"/><path class="k" d="M1340.977,1469.914l-.207.207Q1340.732,1469.877,1340.977,1469.914Z" transform="translate(-1136.801 -1356.647)"/><path class="k" d="M1368.954,1470.158l-.284-.225C1368.831,1469.925,1368.981,1469.929,1368.954,1470.158Z" transform="translate(-1157.908 -1356.663)"/><path class="k" d="M1301.516,1496.708l.3.3Q1301.481,1497.042,1301.516,1496.708Z" transform="translate(-1107.111 -1376.917)"/><path class="k" d="M1329.616,1497.08l.225-.284C1329.849,1496.956,1329.845,1497.107,1329.616,1497.08Z" transform="translate(-1128.368 -1376.984)"/><path class="k" d="M1340.788,1496.791l.226.285C1340.783,1497.1,1340.779,1496.952,1340.788,1496.791Z" transform="translate(-1136.816 -1376.98)"/><path class="k" d="M1368.583,1497l.3-.3C1368.906,1496.926,1368.806,1497.026,1368.583,1497Z" transform="translate(-1157.842 -1376.913)"/><path class="h" d="M919.182,1315.3v-4.88l.2-.2h5.128l.205.2v4.879l-.214.238h-5.11Z" transform="translate(-817.918 -1235.858)"/><path class="h" d="M950.137,1315.3v-4.878l.206-.2h5.127l.2.2q0,2.44,0,4.88l-.211.238h-5.109Z" transform="translate(-841.332 -1235.858)"/><path class="h" d="M1011.424,1315.538h-5.11l-.211-.239q0-2.44,0-4.88l.2-.2h5.128l.205.2v4.879Z" transform="translate(-883.664 -1235.858)"/><path class="h" d="M1042.593,1310.421v4.88l-.211.238h-5.11l-.214-.239v-4.878l.206-.2h5.127Z" transform="translate(-907.079 -1235.858)"/><path class="h" d="M1097.56,1310.422v4.879l-.215.238h-5.109l-.211-.239v-4.88l.2-.2h5.128Z" transform="translate(-948.655 -1235.858)"/><path class="h" d="M1128.515,1310.421v4.88l-.211.238h-5.11l-.214-.239v-4.878l.207-.2h5.127Z" transform="translate(-972.07 -1235.858)"/><path class="h" d="M1042.592,1281.352q0,2.318,0,4.636l-.207.22h-5.119l-.211-.221v-4.635l.215-.238h5.109Z" transform="translate(-907.077 -1213.842)"/><path class="h" d="M1092.234,1281.113h5.109l.215.239v4.635l-.211.22h-5.119l-.207-.22q0-2.319,0-4.637Z" transform="translate(-948.654 -1213.842)"/><path class="h" d="M1011.427,1286.207h-5.119l-.207-.22q0-2.319,0-4.637l.211-.238h5.109l.215.239q0,2.317,0,4.635Z" transform="translate(-883.663 -1213.842)"/><path class="h" d="M1122.978,1285.987v-4.635l.214-.238h5.11l.211.239q0,2.318,0,4.636l-.207.22h-5.119Z" transform="translate(-972.068 -1213.842)"/><path class="h" d="M950.135,1285.987v-4.635l.214-.238h5.11l.211.239v4.636l-.207.22h-5.119Z" transform="translate(-841.331 -1213.842)"/><path class="h" d="M919.18,1285.988q0-2.319,0-4.637l.211-.238H924.5l.214.239q0,2.317,0,4.635l-.211.22h-5.119Z" transform="translate(-817.916 -1213.842)"/><path class="n" d="M1144.837,1331.315l.211-.238C1145.062,1331.231,1145.033,1331.347,1144.837,1331.315Z" transform="translate(-988.602 -1251.635)"/><path class="n" d="M1122.971,1331.07l.214.239C1122.991,1331.339,1122.954,1331.229,1122.971,1331.07Z" transform="translate(-972.06 -1251.629)"/><path class="n" d="M1113.866,1331.312l.214-.238C1114.1,1331.232,1114.06,1331.343,1113.866,1331.312Z" transform="translate(-965.176 -1251.632)"/><path class="n" d="M1092.015,1331.073l.211.239C1092.029,1331.343,1092,1331.228,1092.015,1331.073Z" transform="translate(-948.645 -1251.631)"/><path class="n" d="M1058.915,1331.315l.211-.238C1059.14,1331.231,1059.111,1331.347,1058.915,1331.315Z" transform="translate(-923.611 -1251.635)"/><path class="n" d="M1037.049,1331.07l.214.239C1037.069,1331.339,1037.032,1331.229,1037.049,1331.07Z" transform="translate(-907.069 -1251.629)"/><path class="n" d="M1027.944,1331.312l.214-.238C1028.175,1331.232,1028.138,1331.343,1027.944,1331.312Z" transform="translate(-900.185 -1251.632)"/><path class="n" d="M1006.093,1331.073l.211.239C1006.107,1331.343,1006.078,1331.228,1006.093,1331.073Z" transform="translate(-883.654 -1251.631)"/><path class="n" d="M971.993,1331.315l.211-.238C972.219,1331.231,972.189,1331.347,971.993,1331.315Z" transform="translate(-857.864 -1251.635)"/><path class="n" d="M950.128,1331.07l.214.239C950.148,1331.339,950.111,1331.229,950.128,1331.07Z" transform="translate(-841.322 -1251.629)"/><path class="n" d="M941.023,1331.312l.214-.238C941.254,1331.232,941.217,1331.343,941.023,1331.312Z" transform="translate(-834.438 -1251.632)"/><path class="n" d="M919.172,1331.073l.211.239C919.186,1331.343,919.157,1331.228,919.172,1331.073Z" transform="translate(-817.908 -1251.631)"/><path class="n" d="M1145.077,1310.4l-.2-.2C1145.034,1310.178,1145.1,1310.246,1145.077,1310.4Z" transform="translate(-988.631 -1235.842)"/><path class="n" d="M1123.171,1310.207l-.206.2C1122.939,1310.243,1123.014,1310.183,1123.171,1310.207Z" transform="translate(-972.054 -1235.845)"/><path class="n" d="M1114.109,1310.408l-.205-.2C1114.061,1310.184,1114.136,1310.245,1114.109,1310.408Z" transform="translate(-965.205 -1235.845)"/><path class="n" d="M1092.213,1310.2l-.2.2C1091.987,1310.245,1092.054,1310.177,1092.213,1310.2Z" transform="translate(-948.641 -1235.842)"/><path class="n" d="M1059.154,1310.4l-.2-.2C1059.112,1310.178,1059.178,1310.246,1059.154,1310.4Z" transform="translate(-923.64 -1235.842)"/><path class="n" d="M1037.249,1310.207l-.206.2C1037.017,1310.243,1037.092,1310.183,1037.249,1310.207Z" transform="translate(-907.063 -1235.845)"/><path class="n" d="M1028.188,1310.408l-.205-.2C1028.139,1310.184,1028.214,1310.245,1028.188,1310.408Z" transform="translate(-900.214 -1235.845)"/><path class="n" d="M1006.291,1310.2l-.2.2C1006.065,1310.245,1006.132,1310.177,1006.291,1310.2Z" transform="translate(-883.65 -1235.842)"/><path class="n" d="M972.233,1310.4l-.2-.2C972.191,1310.178,972.258,1310.246,972.233,1310.4Z" transform="translate(-857.893 -1235.842)"/><path class="n" d="M950.328,1310.207l-.206.2C950.1,1310.243,950.171,1310.183,950.328,1310.207Z" transform="translate(-841.317 -1235.845)"/><path class="n" d="M941.266,1310.408l-.205-.2C941.218,1310.184,941.293,1310.245,941.266,1310.408Z" transform="translate(-834.467 -1235.845)"/><path class="n" d="M919.37,1310.2l-.2.2C919.144,1310.245,919.211,1310.177,919.37,1310.2Z" transform="translate(-817.903 -1235.842)"/><path class="n" d="M1144.855,1301.345l.207-.219C1145.081,1301.282,1145.034,1301.376,1144.855,1301.345Z" transform="translate(-988.616 -1228.98)"/><path class="n" d="M1122.964,1301.12l.21.221C1123,1301.369,1122.942,1301.281,1122.964,1301.12Z" transform="translate(-972.054 -1228.975)"/><path class="n" d="M1113.884,1301.343l.211-.22C1114.116,1301.284,1114.061,1301.371,1113.884,1301.343Z" transform="translate(-965.189 -1228.978)"/><path class="n" d="M1092.01,1301.123l.207.22C1092.037,1301.373,1091.99,1301.279,1092.01,1301.123Z" transform="translate(-948.641 -1228.978)"/><path class="n" d="M1058.933,1301.345l.207-.219C1059.159,1301.282,1059.112,1301.376,1058.933,1301.345Z" transform="translate(-923.625 -1228.98)"/><path class="n" d="M1037.042,1301.12l.211.221C1037.076,1301.369,1037.02,1301.281,1037.042,1301.12Z" transform="translate(-907.063 -1228.975)"/><path class="n" d="M1027.962,1301.343l.211-.22C1028.194,1301.284,1028.139,1301.371,1027.962,1301.343Z" transform="translate(-900.198 -1228.978)"/><path class="n" d="M1006.088,1301.123l.207.22C1006.115,1301.373,1006.068,1301.279,1006.088,1301.123Z" transform="translate(-883.65 -1228.978)"/><path class="n" d="M972.012,1301.345l.207-.219C972.238,1301.282,972.191,1301.376,972.012,1301.345Z" transform="translate(-857.878 -1228.98)"/><path class="n" d="M950.121,1301.12l.21.221C950.155,1301.369,950.1,1301.281,950.121,1301.12Z" transform="translate(-841.316 -1228.975)"/><path class="n" d="M941.041,1301.343l.211-.22C941.273,1301.284,941.218,1301.371,941.041,1301.343Z" transform="translate(-834.452 -1228.978)"/><path class="n" d="M919.167,1301.123l.206.22C919.194,1301.373,919.147,1301.279,919.167,1301.123Z" transform="translate(-817.903 -1228.978)"/><path class="n" d="M1145.047,1281.335l-.211-.239C1145.032,1281.065,1145.062,1281.181,1145.047,1281.335Z" transform="translate(-988.601 -1213.826)"/><path class="n" d="M1123.185,1281.1l-.214.238C1122.954,1281.18,1122.991,1281.07,1123.185,1281.1Z" transform="translate(-972.06 -1213.829)"/><path class="n" d="M1114.08,1281.339l-.215-.239C1114.059,1281.07,1114.1,1281.181,1114.08,1281.339Z" transform="translate(-965.175 -1213.829)"/><path class="n" d="M1092.226,1281.1l-.211.238C1092,1281.18,1092.03,1281.065,1092.226,1281.1Z" transform="translate(-948.646 -1213.826)"/><path class="n" d="M1059.125,1281.335l-.211-.239C1059.11,1281.065,1059.14,1281.181,1059.125,1281.335Z" transform="translate(-923.61 -1213.826)"/><path class="n" d="M1037.263,1281.1l-.215.238C1037.032,1281.18,1037.069,1281.07,1037.263,1281.1Z" transform="translate(-907.069 -1213.829)"/><path class="n" d="M1028.158,1281.339l-.215-.239C1028.137,1281.07,1028.174,1281.181,1028.158,1281.339Z" transform="translate(-900.184 -1213.829)"/><path class="n" d="M1006.3,1281.1l-.211.238C1006.079,1281.18,1006.108,1281.065,1006.3,1281.1Z" transform="translate(-883.655 -1213.826)"/><path class="n" d="M972.2,1281.335l-.211-.239C972.189,1281.065,972.219,1281.181,972.2,1281.335Z" transform="translate(-857.864 -1213.826)"/><path class="n" d="M950.342,1281.1l-.214.238C950.111,1281.18,950.148,1281.07,950.342,1281.1Z" transform="translate(-841.322 -1213.829)"/><path class="n" d="M941.236,1281.339l-.214-.239C941.216,1281.07,941.253,1281.181,941.236,1281.339Z" transform="translate(-834.438 -1213.829)"/><path class="n" d="M919.383,1281.1l-.211.238C919.158,1281.18,919.187,1281.065,919.383,1281.1Z" transform="translate(-817.908 -1213.826)"/></g><path class="d" d="M1344.933,1200.148c1.513,2.991-2.589,10.1-8.709,12.339-7.1,2.6-13.8-2.493-15.06-3.448-3.851-2.924-9.282-9.372-7.439-15.967,1.2-4.3,4.913-6.583,6.895-7.8,1.093-.672,7.829-4.816,14.879-2,.836.335,6.619,2.648,7.258,6.895.429,2.849-1.7,4.958-.388,7.441C1343.182,1199.151,1344.324,1198.944,1344.933,1200.148Z" transform="translate(-1116.067 -1031.856)"/><g transform="translate(202.083 151.929)"><path class="o" d="M1355.264,1197.8c0,1.36-.048,2.721.011,4.078a9.188,9.188,0,0,1-2,6.073,16.089,16.089,0,0,1-6.563,5.227,5.825,5.825,0,0,1-3.343.522,8.478,8.478,0,0,1-2.444-.839,15.966,15.966,0,0,1-6.845-6.454,7.965,7.965,0,0,1-1.038-3.977c.014-3.371,0-6.742,0-10.114,0-.165-.019-.3.232-.3a18.356,18.356,0,0,0,9.947-3.034,7.574,7.574,0,0,0,.738-.5.29.29,0,0,1,.413,0,20.813,20.813,0,0,0,5.894,2.871,15.3,15.3,0,0,0,4.649.659c.293,0,.351.093.349.366C1355.258,1194.186,1355.264,1195.993,1355.264,1197.8Zm-1.536.826c0-1.527,0-3.055,0-4.582,0-.164-.025-.24-.218-.261a21.172,21.172,0,0,1-2.418-.407,24.965,24.965,0,0,1-6.617-2.692.533.533,0,0,0-.605-.006,23.04,23.04,0,0,1-8.948,3.1c-.258.027-.326.1-.324.361.012,2.785.026,5.57,0,8.354a6.128,6.128,0,0,0,.937,3.365,15.315,15.315,0,0,0,6.912,5.922,3.914,3.914,0,0,0,3.3.06,15.335,15.335,0,0,0,7.007-5.894,6.061,6.061,0,0,0,.984-3.519C1353.7,1201.16,1353.728,1199.893,1353.728,1198.626Z" transform="translate(-1333.044 -1188.395)"/><path class="o" d="M1368.235,1225.085c-.063.067-.117.128-.176.186l-5.869,5.87c-.243.244-.5.474-.728.734-.467.542-1.092.908-1.567,1.438-.149.167-.222.021-.307-.063q-1.266-1.263-2.53-2.529c-.606-.606-1.206-1.218-1.822-1.814-.162-.157-.153-.25.006-.394.261-.238.514-.488.75-.751.144-.159.23-.143.375,0,1.074,1.086,2.162,2.159,3.233,3.249.183.186.276.207.472.009,2.271-2.287,4.554-4.562,6.826-6.849.185-.186.286-.182.453.006.234.265.5.5.746.756C1368.143,1224.981,1368.185,1225.03,1368.235,1225.085Z" transform="translate(-1349.741 -1215.354)"/></g><path class="w" d="M989.1,971.782h88.795" transform="translate(-870.801 -872.621)"/><path class="w" d="M987.516,899.666h88.794" transform="translate(-869.605 -818.073)"/><path class="w" d="M989.1,1059.076h88.795" transform="translate(-870.801 -938.65)"/></g></g></g><path class="x" d="M-1088-15958.969v527.066h413.005v-577.691l-13.383-7.3-65.729,47.35-32.452-26.619L-963.346-15858.9Z" transform="translate(1088 16327.902)"/><path class="y" d="M-1173-15795.719l-105.179-62.36-198.1,144.17-119.187-96.988" transform="translate(1589 16025)"/><path class="y" d="M-1595.469-15795.719l123.077-62.36,231.815,144.17,139.469-96.988" transform="translate(1543.555 16169)"/><g transform="translate(479.771 783.012) rotate(180)"><path class="y" d="M-1595.47-15795.719l132.348-62.36,249.277,144.17,149.975-96.988" transform="translate(1543.555 16169)"/></g><g transform="translate(0 -55)"><path class="y" d="M-1111-15795.719l-120.614-62.36-227.177,144.17-136.678-96.988" transform="translate(1589 16025)"/><path class="y" d="M-1595.469-15795.719l138.513-62.36,260.888,144.17,156.961-96.988" transform="translate(1543.555 16169)"/></g></g></svg>